<?xml version="1.0" standalone="no"?>
<!DOCTYPE svg PUBLIC "-//W3C//DTD SVG 20010904//EN"
 "http://www.w3.org/TR/2001/REC-SVG-20010904/DTD/svg10.dtd">
<svg version="1.0" xmlns="http://www.w3.org/2000/svg"
 width="512.000000pt" height="512.000000pt" viewBox="0 0 512.000000 512.000000"
 preserveAspectRatio="xMidYMid meet">
<metadata>
Created by potrace 1.11, written by Peter Selinger 2001-2013
</metadata>
<g transform="translate(0.000000,512.000000) scale(0.100000,-0.100000)"
fill="#000000" stroke="none">
<path d="M1177 4744 c-1 -1 -30 -5 -65 -8 -87 -8 -108 -14 -175 -49 -117 -61
-196 -189 -201 -327 -3 -54 20 -142 65 -251 l41 -100 -38 -100 c-20 -54 -39
-99 -40 -99 -2 0 -29 13 -61 29 -63 32 -360 123 -408 126 -73 4 -142 -59 -159
-146 -2 -13 -19 -82 -37 -154 -17 -71 -33 -157 -33 -190 -5 -157 90 -312 235
-385 47 -24 90 -35 182 -49 114 -16 121 -18 120 -39 0 -12 -1 -69 -2 -126 l-1
-104 -37 10 c-33 9 -164 6 -288 -7 -134 -13 -164 -19 -195 -34 -19 -10 -45
-35 -58 -57 -19 -33 -22 -48 -17 -104 3 -36 8 -76 10 -90 2 -14 7 -43 10 -65
35 -242 97 -358 238 -443 134 -81 272 -75 508 22 11 5 25 -12 54 -66 21 -40
48 -89 60 -108 l22 -34 -61 -31 c-59 -30 -318 -214 -344 -245 -47 -56 -45
-126 5 -199 43 -64 147 -186 211 -249 149 -147 356 -174 535 -69 42 25 142
130 183 192 9 14 21 25 27 25 5 0 38 -18 73 -40 35 -22 66 -40 68 -40 3 0 21
-9 40 -21 l36 -21 -31 -44 c-33 -48 -154 -315 -171 -376 -19 -70 10 -141 72
-173 16 -8 69 -29 117 -46 48 -17 97 -35 108 -40 11 -5 52 -17 91 -28 162 -43
314 -10 425 92 93 86 124 156 145 322 4 28 8 57 10 65 1 8 3 17 3 20 1 3 50 5
111 5 125 0 112 11 126 -105 12 -98 16 -114 52 -189 64 -134 226 -231 385
-231 55 0 165 29 310 80 136 49 175 72 200 120 27 52 18 97 -51 255 -72 166
-91 203 -121 241 -18 23 -20 31 -9 37 7 4 55 32 105 62 51 30 96 55 100 55 5
-1 31 -30 58 -66 71 -92 126 -141 202 -176 153 -72 345 -39 470 81 143 136
263 296 265 354 3 73 -22 104 -175 216 -78 58 -169 119 -203 136 l-61 31 23
34 c13 18 40 67 60 107 28 58 40 73 53 68 228 -94 349 -103 486 -36 134 66
217 196 250 391 3 19 8 42 10 50 8 29 19 146 20 200 0 99 -52 143 -185 155
-41 4 -106 11 -145 15 -38 5 -114 7 -167 6 -54 -2 -98 0 -98 3 -3 51 -2 232 1
235 2 3 31 7 64 10 33 3 78 8 100 11 222 36 377 221 369 441 -1 33 -19 126
-39 205 -21 79 -40 155 -43 168 -2 13 -22 41 -43 62 -58 58 -91 57 -301 -7
-84 -25 -179 -59 -212 -76 -32 -16 -60 -28 -61 -26 -2 2 -20 47 -40 100 l-36
97 45 114 c26 63 50 134 54 158 24 131 -30 280 -133 365 -87 71 -165 91 -387
100 -145 6 -147 6 -191 -19 -29 -18 -48 -38 -59 -64 -26 -61 -92 -343 -94
-397 -4 -135 76 -262 201 -317 26 -12 101 -32 168 -45 66 -13 121 -25 122 -26
11 -14 84 -217 110 -308 65 -227 95 -419 100 -650 1 -85 -1 -193 -6 -240 -53
-494 -304 -922 -703 -1195 -190 -129 -464 -240 -673 -270 -23 -3 -57 -8 -75
-11 -18 -3 -98 -7 -178 -8 -175 -4 -262 5 -468 48 -46 10 -208 70 -282 104
-316 148 -581 409 -738 727 -96 194 -146 366 -178 610 -18 137 -6 464 21 590
3 11 7 31 9 45 21 122 82 333 133 465 20 50 37 91 38 93 1 1 56 13 122 26 174
34 245 71 310 163 63 89 74 186 36 332 -14 53 -33 131 -43 173 -22 95 -44 135
-90 160 -30 16 -53 18 -153 16 -65 -1 -119 -3 -120 -4z"/>
<path d="M2510 3953 c-53 -20 -73 -51 -213 -337 l-145 -293 -78 -12 c-44 -6
-90 -13 -104 -16 -14 -2 -61 -9 -105 -15 -85 -12 -109 -15 -220 -31 -147 -21
-162 -26 -197 -68 -32 -37 -44 -99 -28 -145 7 -24 79 -100 245 -261 186 -181
234 -233 230 -249 -2 -12 -7 -39 -11 -61 -3 -22 -8 -53 -10 -70 -3 -16 -9 -52
-14 -80 -9 -46 -13 -72 -26 -150 -2 -16 -9 -52 -14 -80 -20 -109 -23 -132 -23
-178 0 -77 58 -139 137 -143 47 -3 55 1 356 160 69 37 158 83 198 103 l73 38
82 -43 c45 -23 143 -74 217 -113 74 -39 168 -88 208 -109 88 -46 141 -48 197
-6 67 51 70 76 39 263 -38 228 -53 316 -59 343 -3 14 -8 45 -10 70 -3 25 -8
52 -10 61 -4 10 72 90 224 238 130 126 237 237 246 258 42 87 -18 189 -121
207 -44 8 -160 25 -244 36 -41 5 -86 12 -100 15 -14 3 -43 7 -65 10 -22 2 -60
8 -85 12 -25 4 -49 8 -55 8 -5 1 -20 3 -33 3 -20 2 -43 42 -163 286 -76 156
-150 295 -164 310 -38 41 -105 58 -155 39z"/>
</g>
</svg>
