<svg class="generator__canvas" viewBox="0 0 200 200" xmlns="http://www.w3.org/2000/svg" version="1.1" xmlns:xlink="http://www.w3.org/1999/xlink" xmlns:svgjs="http://svgjs.com/svgjs"><line x1="0" y1="0" x2="10" y2="10" transform="matrix(-0.24949123536382387,0.015941250786341843,-0.015941250786341843,-0.24949123536382387,6.327162430750828,6.16774992288741)" stroke-linecap="round" stroke-width="4" stroke="#F1F5F9"></line><line x1="0" y1="10" x2="10" y2="20" transform="matrix(-0.1852349264532603,0.16789288853866097,-0.16789288853866097,-0.1852349264532603,8.444567960346216,16.9390594541056)" stroke-linecap="round" stroke-width="4" stroke="#F1F5F9"></line><line x1="0" y1="20" x2="10" y2="30" transform="matrix(-0.037549057585787596,0.2471640513392253,-0.2471640513392253,-0.037549057585787596,11.366846571409571,24.702906182948563)" stroke-linecap="round" stroke-width="4" stroke="#F1F5F9"></line><line x1="0" y1="30" x2="10" y2="40" transform="matrix(0.11313324428241064,0.22293691717195785,-0.22293691717195785,0.11313324428241064,12.23712587960647,29.92565186425584)" stroke-linecap="round" stroke-width="4" stroke="#F1F5F9"></line><line x1="0" y1="40" x2="10" y2="50" transform="matrix(0.18702293089805155,0.1658988345899471,-0.1658988345899471,0.18702293089805155,11.53033290205736,35.75447393663794)" stroke-linecap="round" stroke-width="4" stroke="#F1F5F9"></line><line x1="0" y1="50" x2="10" y2="60" transform="matrix(0.19024815336254178,0.16219013577324234,-0.16219013577324234,0.19024815336254178,12.96921670071562,43.725400886193995)" stroke-linecap="round" stroke-width="4" stroke="#F1F5F9"></line><line x1="0" y1="60" x2="10" y2="70" transform="matrix(0.13550179301249804,0.21009346513016092,-0.21009346513016092,0.13550179301249804,17.97856626839797,55.14191612853682)" stroke-linecap="round" stroke-width="4" stroke="#F1F5F9"></line><line x1="0" y1="70" x2="10" y2="80" transform="matrix(0.03536428881374269,0.24748609471382063,-0.24748609471382063,0.03536428881374269,23.384635659467833,71.1102478654002)" stroke-linecap="round" stroke-width="4" stroke="#F1F5F9"></line><line x1="0" y1="80" x2="10" y2="90" transform="matrix(-0.04856928587452759,0.24523667031999602,-0.24523667031999602,-0.04856928587452759,26.0879634065723,87.90220594773487)" stroke-linecap="round" stroke-width="4" stroke="#F1F5F9"></line><line x1="0" y1="90" x2="10" y2="100" transform="matrix(-0.0666046491034346,0.24096435569977637,-0.24096435569977637,-0.0666046491034346,28.224637036995926,100.1226198863274)" stroke-linecap="round" stroke-width="4" stroke="#F1F5F9"></line><line x1="0" y1="100" x2="10" y2="110" transform="matrix(-0.02036709670017144,0.24916898156071887,-0.24916898156071887,-0.02036709670017144,31.26457854737634,105.89270024571441)" stroke-linecap="round" stroke-width="4" stroke="#F1F5F9"></line><line x1="0" y1="110" x2="10" y2="120" transform="matrix(0.0447070542502333,0.24597007805882953,-0.24597007805882953,0.0447070542502333,33.063023705514226,108.62883837092902)" stroke-linecap="round" stroke-width="4" stroke="#F1F5F9"></line><line x1="0" y1="120" x2="10" y2="130" transform="matrix(0.06044573279807771,0.24258259085619355,-0.24258259085619355,0.06044573279807771,35.020595193033806,116.23137044595931)" stroke-linecap="round" stroke-width="4" stroke="#F1F5F9"></line><line x1="0" y1="130" x2="10" y2="140" transform="matrix(-0.005971070082368363,0.24992868247176322,-0.24992868247176322,-0.005971070082368363,38.77022748409988,134.55645104876092)" stroke-linecap="round" stroke-width="4" stroke="#F1F5F9"></line><line x1="0" y1="140" x2="10" y2="150" transform="matrix(-0.15477552406339198,0.1963276270699118,-0.1963276270699118,-0.15477552406339198,34.24138354545417,166.46081285384227)" stroke-linecap="round" stroke-width="4" stroke="#F1F5F9"></line><line x1="0" y1="150" x2="10" y2="160" transform="matrix(-0.24984794295598767,-0.008718107630761064,0.008718107630761064,-0.24984794295598767,4.897933032011974,193.7700216963319)" stroke-linecap="round" stroke-width="4" stroke="#F1F5F9"></line><line x1="0" y1="160" x2="10" y2="170" transform="matrix(-0.13294389291948422,-0.21172132942954217,0.21172132942954217,-0.13294389291948422,-29.269299891277036,187.9943489788626)" stroke-linecap="round" stroke-width="4" stroke="#F1F5F9"></line><line x1="0" y1="170" x2="10" y2="180" transform="matrix(0.03491678342131112,-0.2475496278234109,0.2475496278234109,0.03491678342131112,-38.495768786203456,170.1273110403876)" stroke-linecap="round" stroke-width="4" stroke="#F1F5F9"></line><line x1="0" y1="180" x2="10" y2="190" transform="matrix(0.0896835067679573,-0.23335995503470974,0.23335995503470974,0.0896835067679573,-38.62000921526109,169.57535102310146)" stroke-linecap="round" stroke-width="4" stroke="#F1F5F9"></line><line x1="0" y1="190" x2="10" y2="200" transform="matrix(0.029508918718728946,-0.24825233879271197,0.24825233879271197,0.029508918718728946,-43.556750658172476,190.4870225438114)" stroke-linecap="round" stroke-width="4" stroke="#F1F5F9"></line><line x1="10" y1="0" x2="20" y2="10" transform="matrix(-0.24471943738231774,0.05111161284171984,-0.05111161284171984,-0.24471943738231774,18.926349624943366,5.456922994285791)" stroke-linecap="round" stroke-width="4" stroke="#F1F5F9"></line><line x1="10" y1="10" x2="20" y2="20" transform="matrix(-0.17037834687244294,0.18295141135562062,-0.18295141135562062,-0.17037834687244294,20.29994637342095,14.811404032752336)" stroke-linecap="round" stroke-width="4" stroke="#F1F5F9"></line><line x1="10" y1="20" x2="20" y2="30" transform="matrix(-0.04586100222095813,0.24575754001716665,-0.24575754001716665,-0.04586100222095813,21.831853533743537,22.460161955266454)" stroke-linecap="round" stroke-width="4" stroke="#F1F5F9"></line><line x1="10" y1="30" x2="20" y2="40" transform="matrix(0.058655893228557174,0.24302157556389947,-0.24302157556389947,0.058655893228557174,22.625916746308125,29.301720103542007)" stroke-linecap="round" stroke-width="4" stroke="#F1F5F9"></line><line x1="10" y1="40" x2="20" y2="50" transform="matrix(0.08512385654215406,0.23506154310603591,-0.23506154310603591,0.08512385654215406,24.300911591639306,37.64350330901253)" stroke-linecap="round" stroke-width="4" stroke="#F1F5F9"></line><line x1="10" y1="50" x2="20" y2="60" transform="matrix(0.02821505920717644,0.2484027182498926,-0.2484027182498926,0.02821505920717644,28.238923615636445,49.722130969856906)" stroke-linecap="round" stroke-width="4" stroke="#F1F5F9"></line><line x1="10" y1="60" x2="20" y2="70" transform="matrix(-0.07853958892731729,0.2373426488668398,-0.2373426488668398,-0.07853958892731729,31.605366010254347,66.54493354727303)" stroke-linecap="round" stroke-width="4" stroke="#F1F5F9"></line><line x1="10" y1="70" x2="20" y2="80" transform="matrix(-0.16294931990136508,0.18959830997053373,-0.18959830997053373,-0.16294931990136508,31.664113046310504,84.37722434304438)" stroke-linecap="round" stroke-width="4" stroke="#F1F5F9"></line><line x1="10" y1="80" x2="20" y2="90" transform="matrix(-0.18603219788675424,0.1670090457113731,-0.1670090457113731,-0.18603219788675424,31.986251853768024,98.30760113470352)" stroke-linecap="round" stroke-width="4" stroke="#F1F5F9"></line><line x1="10" y1="90" x2="20" y2="100" transform="matrix(-0.13823632718747883,0.20830438748551675,-0.20830438748551675,-0.13823632718747883,36.862461718936274,105.00788527052774)" stroke-linecap="round" stroke-width="4" stroke="#F1F5F9"></line><line x1="10" y1="100" x2="20" y2="110" transform="matrix(-0.004821035835634072,0.24995351090447107,-0.24995351090447107,-0.004821035835634072,41.31743418250397,101.75690609917451)" stroke-linecap="round" stroke-width="4" stroke="#F1F5F9"></line><line x1="10" y1="110" x2="20" y2="120" transform="matrix(0.13990996234328237,0.20718398209586886,-0.20718398209586886,0.13990996234328237,36.72750850587568,95.8025945990845)" stroke-linecap="round" stroke-width="4" stroke="#F1F5F9"></line><line x1="10" y1="120" x2="20" y2="130" transform="matrix(0.20412424675521731,0.14433742372169167,-0.14433742372169167,0.20412424675521731,29.980314263883198,97.31940779977246)" stroke-linecap="round" stroke-width="4" stroke="#F1F5F9"></line><line x1="10" y1="130" x2="20" y2="140" transform="matrix(0.19644226195557246,0.1546300026443065,-0.1546300026443065,0.19644226195557246,32.92841642764779,106.16084459633312)" stroke-linecap="round" stroke-width="4" stroke="#F1F5F9"></line><line x1="10" y1="140" x2="20" y2="150" transform="matrix(0.07891908347414094,0.23721673268047846,-0.23721673268047846,0.07891908347414094,48.212639986557264,129.9984819060424)" stroke-linecap="round" stroke-width="4" stroke="#F1F5F9"></line><line x1="10" y1="150" x2="20" y2="160" transform="matrix(-0.16858505812351038,0.18460519542389003,-0.18460519542389003,-0.16858505812351038,46.142581162555615,178.36160607778575)" stroke-linecap="round" stroke-width="4" stroke="#F1F5F9"></line><line x1="10" y1="160" x2="20" y2="170" transform="matrix(-0.22847057342117694,-0.10149481307238613,0.10149481307238613,-0.22847057342117694,1.6804144443739446,204.22006681058)" stroke-linecap="round" stroke-width="4" stroke="#F1F5F9"></line><line x1="10" y1="170" x2="20" y2="180" transform="matrix(-0.029809725860431756,-0.24821639801617842,0.24821639801617842,-0.029809725860431756,-27.990723764924745,183.93994799581824)" stroke-linecap="round" stroke-width="4" stroke="#F1F5F9"></line><line x1="10" y1="180" x2="20" y2="190" transform="matrix(0.09152001654789695,-0.2326458393590409,0.2326458393590409,0.09152001654789695,-29.412280529641023,171.55848452902467)" stroke-linecap="round" stroke-width="4" stroke="#F1F5F9"></line><line x1="10" y1="190" x2="20" y2="200" transform="matrix(0.057510076405156554,-0.2432952755642268,0.2432952755642268,0.057510076405156554,-33.305229881101575,187.43496423445788)" stroke-linecap="round" stroke-width="4" stroke="#F1F5F9"></line><line x1="20" y1="0" x2="30" y2="10" transform="matrix(-0.24715330846498956,0.03761970381076535,-0.03761970381076535,-0.24715330846498956,31.366931230678567,5.295273947055814)" stroke-linecap="round" stroke-width="4" stroke="#F1F5F9"></line><line x1="20" y1="10" x2="30" y2="20" transform="matrix(-0.18699242682522688,0.16593321641555728,-0.16593321641555728,-0.18699242682522688,32.16380891686403,13.656555991989471)" stroke-linecap="round" stroke-width="4" stroke="#F1F5F9"></line><line x1="20" y1="20" x2="30" y2="30" transform="matrix(-0.08755815518732694,0.23416568805055957,-0.23416568805055957,-0.08755815518732694,33.043096080947166,21.334811678419186)" stroke-linecap="round" stroke-width="4" stroke="#F1F5F9"></line><line x1="20" y1="30" x2="30" y2="40" transform="matrix(-0.025167681653438877,0.24872994954406105,-0.24872994954406105,-0.025167681653438877,34.33474027537811,29.662620119268833)" stroke-linecap="round" stroke-width="4" stroke="#F1F5F9"></line><line x1="20" y1="40" x2="30" y2="50" transform="matrix(-0.05798718693763254,0.24318200211171068,-0.24318200211171068,-0.05798718693763254,37.39286976846779,41.529873359400696)" stroke-linecap="round" stroke-width="4" stroke="#F1F5F9"></line><line x1="20" y1="50" x2="30" y2="60" transform="matrix(-0.16535547239431073,0.18750351396508372,-0.18750351396508372,-0.16535547239431073,39.44658007793737,59.406963132559994)" stroke-linecap="round" stroke-width="4" stroke="#F1F5F9"></line><line x1="20" y1="60" x2="30" y2="70" transform="matrix(-0.24243341727299042,0.0610412826646042,-0.0610412826646042,-0.24243341727299042,35.028518805024035,79.23214005612927)" stroke-linecap="round" stroke-width="4" stroke="#F1F5F9"></line><line x1="20" y1="70" x2="30" y2="80" transform="matrix(-0.24715944766450562,-0.03757934845332609,0.03757934845332609,-0.24715944766450562,28.360535057613184,94.47644228617108)" stroke-linecap="round" stroke-width="4" stroke="#F1F5F9"></line><line x1="20" y1="80" x2="30" y2="90" transform="matrix(-0.24809698777630926,-0.030787735485447092,0.030787735485447092,-0.24809698777630926,28.58546717814473,106.85793734812246)" stroke-linecap="round" stroke-width="4" stroke="#F1F5F9"></line><line x1="20" y1="90" x2="30" y2="100" transform="matrix(-0.23335617899845734,0.08969333154276259,-0.08969333154276259,-0.23335617899845734,39.35477097152388,114.92650371628439)" stroke-linecap="round" stroke-width="4" stroke="#F1F5F9"></line><line x1="20" y1="100" x2="30" y2="110" transform="matrix(-0.09470024770810459,0.23136953793449913,-0.23136953793449913,-0.09470024770810459,51.66130767582502,109.1592875609885)" stroke-linecap="round" stroke-width="4" stroke="#F1F5F9"></line><line x1="20" y1="110" x2="30" y2="120" transform="matrix(0.11126165090351413,0.223876852394848,-0.223876852394848,0.11126165090351413,47.96429675281966,96.60798883622468)" stroke-linecap="round" stroke-width="4" stroke="#F1F5F9"></line><line x1="20" y1="120" x2="30" y2="130" transform="matrix(0.21953580158852026,0.11959946413293776,-0.11959946413293776,0.21953580158852026,34.46153797690421,94.56803819811152)" stroke-linecap="round" stroke-width="4" stroke="#F1F5F9"></line><line x1="20" y1="130" x2="30" y2="140" transform="matrix(0.23685776243818016,0.07999000170507942,-0.07999000170507942,0.23685776243818016,29.87720616923122,101.02445202821869)" stroke-linecap="round" stroke-width="4" stroke="#F1F5F9"></line><line x1="20" y1="140" x2="30" y2="150" transform="matrix(0.18011994373482265,0.1733689876216745,-0.1733689876216745,0.18011994373482265,45.635504611772234,114.54838346790885)" stroke-linecap="round" stroke-width="4" stroke="#F1F5F9"></line><line x1="20" y1="150" x2="30" y2="160" transform="matrix(-0.057922620312373364,0.2431973890816853,-0.2431973890816853,-0.057922620312373364,64.14366081547055,157.89807142137573)" stroke-linecap="round" stroke-width="4" stroke="#F1F5F9"></line><line x1="20" y1="160" x2="30" y2="170" transform="matrix(-0.2499977395619979,-0.001063115182598207,0.001063115182598207,-0.2499977395619979,31.074529483921243,206.2762049072946)" stroke-linecap="round" stroke-width="4" stroke="#F1F5F9"></line><line x1="20" y1="170" x2="30" y2="180" transform="matrix(-0.091824348229348,-0.23252588903658758,0.23252588903658758,-0.091824348229348,-13.396421875669127,196.8824081660506)" stroke-linecap="round" stroke-width="4" stroke="#F1F5F9"></line><line x1="20" y1="180" x2="30" y2="190" transform="matrix(0.0646473271082606,-0.24149683869102212,0.24149683869102212,0.0646473271082606,-21.293098335545608,179.07766545224735)" stroke-linecap="round" stroke-width="4" stroke="#F1F5F9"></line><line x1="20" y1="190" x2="30" y2="200" transform="matrix(0.04785361720951868,-0.24537732438015714,0.24537732438015714,0.04785361720951868,-24.04491868436861,191.80297775364778)" stroke-linecap="round" stroke-width="4" stroke="#F1F5F9"></line><line x1="30" y1="0" x2="40" y2="10" transform="matrix(-0.24997310836761194,0.003666755109648159,-0.003666755109648159,-0.24997310836761194,43.76739256841466,6.121529113000374)" stroke-linecap="round" stroke-width="4" stroke="#F1F5F9"></line><line x1="30" y1="10" x2="40" y2="20" transform="matrix(-0.20458227263130888,0.1436874863201692,-0.1436874863201692,-0.20458227263130888,44.31569183689835,13.03967206826371)" stroke-linecap="round" stroke-width="4" stroke="#F1F5F9"></line><line x1="30" y1="20" x2="40" y2="30" transform="matrix(-0.11528733406648833,0.22183063495343,-0.22183063495343,-0.11528733406648833,44.58082256616284,20.118111128292156)" stroke-linecap="round" stroke-width="4" stroke="#F1F5F9"></line><line x1="30" y1="30" x2="40" y2="40" transform="matrix(-0.07798768187633728,0.23752457025654256,-0.23752457025654256,-0.07798768187633728,46.042928824650794,29.416208906692816)" stroke-linecap="round" stroke-width="4" stroke="#F1F5F9"></line><line x1="30" y1="40" x2="40" y2="50" transform="matrix(-0.1480658973181514,0.20143606939019298,-0.20143606939019298,-0.1480658973181514,49.24692952869398,44.61270295066006)" stroke-linecap="round" stroke-width="4" stroke="#F1F5F9"></line><line x1="30" y1="50" x2="40" y2="60" transform="matrix(-0.24382935348365609,0.05520186935007084,-0.05520186935007084,-0.24382935348365609,46.570130186181856,66.4785490143486)" stroke-linecap="round" stroke-width="4" stroke="#F1F5F9"></line><line x1="30" y1="60" x2="40" y2="70" transform="matrix(-0.2097599411461896,-0.13601752493832212,0.13601752493832212,-0.2097599411461896,33.5004588191257,83.39500954734359)" stroke-linecap="round" stroke-width="4" stroke="#F1F5F9"></line><line x1="30" y1="70" x2="40" y2="80" transform="matrix(-0.11881278639065586,-0.2199625463347985,0.2199625463347985,-0.11881278639065586,22.661256548563067,91.60964810101714)" stroke-linecap="round" stroke-width="4" stroke="#F1F5F9"></line><line x1="30" y1="80" x2="40" y2="90" transform="matrix(-0.1274454847288337,-0.21507591316145241,0.21507591316145241,-0.1274454847288337,21.179139346785725,103.36052316260171)" stroke-linecap="round" stroke-width="4" stroke="#F1F5F9"></line><line x1="30" y1="90" x2="40" y2="100" transform="matrix(-0.22271038815675276,-0.11357853233366122,0.11357853233366122,-0.22271038815675276,32.004903013788535,120.13273550656965)" stroke-linecap="round" stroke-width="4" stroke="#F1F5F9"></line><line x1="30" y1="100" x2="40" y2="110" transform="matrix(-0.2278999263049502,0.10276976009604315,-0.10276976009604315,-0.2278999263049502,53.767322230757784,125.33255065865826)" stroke-linecap="round" stroke-width="4" stroke="#F1F5F9"></line><line x1="30" y1="110" x2="40" y2="120" transform="matrix(-0.04265092651519548,0.24633493148028235,-0.24633493148028235,-0.04265092651519548,64.8212995482643,111.28313394743759)" stroke-linecap="round" stroke-width="4" stroke="#F1F5F9"></line><line x1="30" y1="120" x2="40" y2="130" transform="matrix(0.1463744763200428,0.2026684797447132,-0.2026684797447132,0.1463744763200428,55.21045329688765,99.60979366892968)" stroke-linecap="round" stroke-width="4" stroke="#F1F5F9"></line><line x1="30" y1="130" x2="40" y2="140" transform="matrix(0.21250044263564213,0.13169495768500847,-0.13169495768500847,0.21250044263564213,45.34130379522867,101.70311672521302)" stroke-linecap="round" stroke-width="4" stroke="#F1F5F9"></line><line x1="30" y1="140" x2="40" y2="150" transform="matrix(0.17874760007808865,0.1747835674951272,-0.1747835674951272,0.17874760007808865,54.087451284060336,112.9641731263477)" stroke-linecap="round" stroke-width="4" stroke="#F1F5F9"></line><line x1="30" y1="150" x2="40" y2="160" transform="matrix(-0.01472759169576171,0.2495658190595077,-0.2495658190595077,-0.01472759169576171,74.19816766357536,148.5479730457603)" stroke-linecap="round" stroke-width="4" stroke="#F1F5F9"></line><line x1="30" y1="160" x2="40" y2="170" transform="matrix(-0.24016780475539867,0.0694220826464656,-0.0694220826464656,-0.24016780475539867,54.860516803105774,202.1979148920145)" stroke-linecap="round" stroke-width="4" stroke="#F1F5F9"></line><line x1="30" y1="170" x2="40" y2="180" transform="matrix(-0.15920693777839848,-0.19275152648740596,0.19275152648740596,-0.15920693777839848,6.840725686947902,209.60751753827896)" stroke-linecap="round" stroke-width="4" stroke="#F1F5F9"></line><line x1="30" y1="180" x2="40" y2="190" transform="matrix(-0.003294660025325838,-0.24997828948794237,0.24997828948794237,-0.003294660025325838,-11.130670454382937,194.35875223676325)" stroke-linecap="round" stroke-width="4" stroke="#F1F5F9"></line><line x1="30" y1="190" x2="40" y2="200" transform="matrix(-0.0018699070717644562,-0.24999300679727615,0.24999300679727615,-0.0018699070717644562,-13.683189577957094,204.11438711689874)" stroke-linecap="round" stroke-width="4" stroke="#F1F5F9"></line><line x1="40" y1="0" x2="50" y2="10" transform="matrix(-0.24883562104944443,-0.024100491632688435,0.024100491632688435,-0.24883562104944443,56.07710048906156,7.328700228718201)" stroke-linecap="round" stroke-width="4" stroke="#F1F5F9"></line><line x1="40" y1="10" x2="50" y2="20" transform="matrix(-0.20603035545963422,0.1416032931438276,-0.1416032931438276,-0.20603035545963422,56.39541539284095,11.71830714042227)" stroke-linecap="round" stroke-width="4" stroke="#F1F5F9"></line><line x1="40" y1="20" x2="50" y2="30" transform="matrix(-0.10316019052761707,0.227723461879328,-0.227723461879328,-0.10316019052761707,55.33529512072597,17.331448978620667)" stroke-linecap="round" stroke-width="4" stroke="#F1F5F9"></line><line x1="40" y1="30" x2="50" y2="40" transform="matrix(-0.06790408972398325,0.24060140190522006,-0.24060140190522006,-0.06790408972398325,56.476733104261946,26.54958005460451)" stroke-linecap="round" stroke-width="4" stroke="#F1F5F9"></line><line x1="40" y1="40" x2="50" y2="50" transform="matrix(-0.1597324085716809,0.19231629585630441,-0.19231629585630441,-0.1597324085716809,60.84219169925934,43.53372507219194)" stroke-linecap="round" stroke-width="4" stroke="#F1F5F9"></line><line x1="40" y1="50" x2="50" y2="60" transform="matrix(-0.24997933834752584,-0.0032140938588031956,0.0032140938588031956,-0.24997933834752584,56.07229506340449,68.89349783276006)" stroke-linecap="round" stroke-width="4" stroke="#F1F5F9"></line><line x1="40" y1="60" x2="50" y2="70" transform="matrix(-0.1298153381463605,-0.21365387424979235,0.21365387424979235,-0.1298153381463605,36.95418839034972,83.05242132075409)" stroke-linecap="round" stroke-width="4" stroke="#F1F5F9"></line><line x1="40" y1="70" x2="50" y2="80" transform="matrix(0.04029146985318994,-0.24673183308415939,0.24673183308415939,0.04029146985318994,24.6819963752945,83.08107224979793)" stroke-linecap="round" stroke-width="4" stroke="#F1F5F9"></line><line x1="40" y1="80" x2="50" y2="90" transform="matrix(0.07117465329436994,-0.23965426916378152,0.23965426916378152,0.07117465329436994,21.426527722831924,89.73459658234873)" stroke-linecap="round" stroke-width="4" stroke="#F1F5F9"></line><line x1="40" y1="90" x2="50" y2="100" transform="matrix(-0.04083413340335318,-0.2466426028673821,0.2466426028673821,-0.04083413340335318,23.406488730749594,109.97815980235075)" stroke-linecap="round" stroke-width="4" stroke="#F1F5F9"></line><line x1="40" y1="100" x2="50" y2="110" transform="matrix(-0.21184091299862462,-0.13275325826475656,0.13275325826475656,-0.21184091299862462,40.593748967138666,133.21719248676965)" stroke-linecap="round" stroke-width="4" stroke="#F1F5F9"></line><line x1="40" y1="110" x2="50" y2="120" transform="matrix(-0.22442966511623685,0.11014229621636629,-0.11014229621636629,-0.22442966511623685,67.76569899511279,135.85300815863076)" stroke-linecap="round" stroke-width="4" stroke="#F1F5F9"></line><line x1="40" y1="120" x2="50" y2="130" transform="matrix(-0.04843265609068463,0.2452636903905702,-0.2452636903905702,-0.04843265609068463,77.83743082290208,120.01721594375992)" stroke-linecap="round" stroke-width="4" stroke="#F1F5F9"></line><line x1="40" y1="130" x2="50" y2="140" transform="matrix(0.09436730250505555,0.2315055338818477,-0.2315055338818477,0.09436730250505555,72.00671846132194,111.84266513713436)" stroke-linecap="round" stroke-width="4" stroke="#F1F5F9"></line><line x1="40" y1="140" x2="50" y2="150" transform="matrix(0.10373048262670777,0.2274642542775244,-0.2274642542775244,0.10373048262670777,73.31444515203918,119.72318857663878)" stroke-linecap="round" stroke-width="4" stroke="#F1F5F9"></line><line x1="40" y1="150" x2="50" y2="160" transform="matrix(-0.03615639288768404,0.247371613677381,-0.247371613677381,-0.03615639288768404,84.96963779993983,149.4725182821089)" stroke-linecap="round" stroke-width="4" stroke="#F1F5F9"></line><line x1="40" y1="160" x2="50" y2="170" transform="matrix(-0.2273086244450642,0.104071077888589,-0.104071077888589,-0.2273086244450642,72.40061595164508,197.8227245284491)" stroke-linecap="round" stroke-width="4" stroke="#F1F5F9"></line><line x1="40" y1="170" x2="50" y2="180" transform="matrix(-0.2065627530664986,-0.14082552696719697,0.14082552696719697,-0.2065627530664986,29.65085666873297,217.4856305001611)" stroke-linecap="round" stroke-width="4" stroke="#F1F5F9"></line><line x1="40" y1="180" x2="50" y2="190" transform="matrix(-0.07816343646073298,-0.2374667917849756,0.2374667917849756,-0.07816343646073298,4.585998160512496,210.1462413755595)" stroke-linecap="round" stroke-width="4" stroke="#F1F5F9"></line><line x1="40" y1="190" x2="50" y2="200" transform="matrix(-0.06176592913041787,-0.24224980907867852,0.24224980907867852,-0.06176592913041787,0.5407540405264939,217.94559758897202)" stroke-linecap="round" stroke-width="4" stroke="#F1F5F9"></line><line x1="50" y1="0" x2="60" y2="10" transform="matrix(-0.2473304947581589,-0.036436607453004234,0.036436607453004234,-0.2473304947581589,68.42099417443372,8.240665883706027)" stroke-linecap="round" stroke-width="4" stroke="#F1F5F9"></line><line x1="50" y1="10" x2="60" y2="20" transform="matrix(-0.19152133658393256,0.1606847149952478,-0.1606847149952478,-0.19152133658393256,67.943944237045,9.03516072402036)" stroke-linecap="round" stroke-width="4" stroke="#F1F5F9"></line><line x1="50" y1="20" x2="60" y2="30" transform="matrix(-0.054476123468706485,0.24399252441790556,-0.24399252441790556,-0.054476123468706485,64.09599990122649,12.942314243732856)" stroke-linecap="round" stroke-width="4" stroke="#F1F5F9"></line><line x1="50" y1="30" x2="60" y2="40" transform="matrix(-0.0033565699332204642,0.24997746586099195,-0.24997746586099195,-0.0033565699332204642,63.933822651461846,21.368719325308156)" stroke-linecap="round" stroke-width="4" stroke="#F1F5F9"></line><line x1="50" y1="40" x2="60" y2="50" transform="matrix(-0.10932490753734941,0.22482896742179376,-0.22482896742179376,-0.10932490753734941,71.13017344853493,37.55402763098206)" stroke-linecap="round" stroke-width="4" stroke="#F1F5F9"></line><line x1="50" y1="50" x2="60" y2="60" transform="matrix(-0.24839911593702937,0.028246755596036913,-0.028246755596036913,-0.24839911593702937,70.21552293431864,67.10837981875459)" stroke-linecap="round" stroke-width="4" stroke="#F1F5F9"></line><line x1="50" y1="60" x2="60" y2="70" transform="matrix(-0.11271801264382214,-0.22314714792178536,0.22314714792178536,-0.11271801264382214,46.69492608049417,84.59976395754663)" stroke-linecap="round" stroke-width="4" stroke="#F1F5F9"></line><line x1="50" y1="70" x2="60" y2="80" transform="matrix(0.1212801498073198,-0.21861181409684627,0.21861181409684627,0.1212801498073198,31.933705703333942,77.92763853977756)" stroke-linecap="round" stroke-width="4" stroke="#F1F5F9"></line><line x1="50" y1="80" x2="60" y2="90" transform="matrix(0.19662735801106193,-0.15439456623077663,0.15439456623077663,0.19662735801106193,31.061957179775582,76.77837571175245)" stroke-linecap="round" stroke-width="4" stroke="#F1F5F9"></line><line x1="50" y1="90" x2="60" y2="100" transform="matrix(0.15360190741502744,-0.19724719019155973,0.19724719019155973,0.15360190741502744,27.813412023975317,91.25641425610817)" stroke-linecap="round" stroke-width="4" stroke="#F1F5F9"></line><line x1="50" y1="100" x2="60" y2="110" transform="matrix(-0.013592407111536446,-0.24963021946253675,0.24963021946253675,-0.013592407111536446,29.536409347568146,120.15686481715085)" stroke-linecap="round" stroke-width="4" stroke="#F1F5F9"></line><line x1="50" y1="110" x2="60" y2="120" transform="matrix(-0.21306833028192562,-0.13077418182069525,0.13077418182069525,-0.21306833028192562,51.67972725612596,146.6954379825597)" stroke-linecap="round" stroke-width="4" stroke="#F1F5F9"></line><line x1="50" y1="120" x2="60" y2="130" transform="matrix(-0.2293372920517048,0.09952088461419069,-0.09952088461419069,-0.2293372920517048,80.0536616396176,148.1935128526826)" stroke-linecap="round" stroke-width="4" stroke="#F1F5F9"></line><line x1="50" y1="130" x2="60" y2="140" transform="matrix(-0.10923233248332849,0.2248739592310581,-0.2248739592310581,-0.10923233248332849,91.3657627827759,137.37829712754115)" stroke-linecap="round" stroke-width="4" stroke="#F1F5F9"></line><line x1="50" y1="140" x2="60" y2="150" transform="matrix(-0.0468220452976786,0.24557625307456366,-0.24557625307456366,-0.0468220452976786,93.18376918718405,138.2825026490624)" stroke-linecap="round" stroke-width="4" stroke="#F1F5F9"></line><line x1="50" y1="150" x2="60" y2="160" transform="matrix(-0.11602707485199704,0.22144461587785122,-0.22144461587785122,-0.11602707485199704,95.70540457792677,160.8047427287777)" stroke-linecap="round" stroke-width="4" stroke="#F1F5F9"></line><line x1="50" y1="160" x2="60" y2="170" transform="matrix(-0.23508971528530057,0.08504602146530027,-0.08504602146530027,-0.23508971528530057,81.96252788246608,199.11227184148308)" stroke-linecap="round" stroke-width="4" stroke="#F1F5F9"></line><line x1="50" y1="170" x2="60" y2="180" transform="matrix(-0.21734262922875308,-0.1235402020393878,0.1235402020393878,-0.21734262922875308,45.334309250688555,219.8296712271981)" stroke-linecap="round" stroke-width="4" stroke="#F1F5F9"></line><line x1="50" y1="180" x2="60" y2="190" transform="matrix(-0.1070975835339399,-0.2258984453270778,0.2258984453270778,-0.1070975835339399,19.0991547088573,217.23746744676816)" stroke-linecap="round" stroke-width="4" stroke="#F1F5F9"></line><line x1="50" y1="190" x2="60" y2="200" transform="matrix(-0.07707586239417041,-0.23782201629831268,0.23782201629831268,-0.07707586239417041,12.8638792535084,223.11000406327042)" stroke-linecap="round" stroke-width="4" stroke="#F1F5F9"></line><line x1="60" y1="0" x2="70" y2="10" transform="matrix(-0.24650473907303594,-0.0416582958669035,0.0416582958669035,-0.24650473907303594,80.81451656041281,8.940312926713908)" stroke-linecap="round" stroke-width="4" stroke="#F1F5F9"></line><line x1="60" y1="10" x2="70" y2="20" transform="matrix(-0.17476931557857558,0.1787615348227808,-0.1787615348227808,-0.17476931557857558,79.04142853494912,6.002039970197881)" stroke-linecap="round" stroke-width="4" stroke="#F1F5F9"></line><line x1="60" y1="20" x2="70" y2="30" transform="matrix(-0.005299913046904021,0.24994381553000117,-0.24994381553000117,-0.005299913046904021,71.5930897362988,8.886149816722522)" stroke-linecap="round" stroke-width="4" stroke="#F1F5F9"></line><line x1="60" y1="30" x2="70" y2="40" transform="matrix(0.06565471634410561,0.24122491210854452,-0.24122491210854452,0.06565471634410561,69.1753153614322,17.02246564090091)" stroke-linecap="round" stroke-width="4" stroke="#F1F5F9"></line><line x1="60" y1="40" x2="70" y2="50" transform="matrix(-0.03261811875036963,0.24786298297484194,-0.24786298297484194,-0.03261811875036963,78.27401195264191,30.356721450401906)" stroke-linecap="round" stroke-width="4" stroke="#F1F5F9"></line><line x1="60" y1="50" x2="70" y2="60" transform="matrix(-0.22984831794222554,0.09833489075160248,-0.09833489075160248,-0.22984831794222554,85.3485596575828,61.24988958796824)" stroke-linecap="round" stroke-width="4" stroke="#F1F5F9"></line><line x1="60" y1="60" x2="70" y2="70" transform="matrix(-0.1485061740168553,-0.2011117009994085,0.2011117009994085,-0.1485061740168553,61.580640746134044,87.72516187605714)" stroke-linecap="round" stroke-width="4" stroke="#F1F5F9"></line><line x1="60" y1="70" x2="70" y2="80" transform="matrix(0.12831126448540708,-0.21456052620683963,0.21456052620683963,0.12831126448540708,40.56772834293557,79.32308936703905)" stroke-linecap="round" stroke-width="4" stroke="#F1F5F9"></line><line x1="60" y1="80" x2="70" y2="90" transform="matrix(0.2305779063515395,-0.09661174412327253,0.09661174412327253,0.2305779063515395,41.80043783667177,71.68064132813186)" stroke-linecap="round" stroke-width="4" stroke="#F1F5F9"></line><line x1="60" y1="90" x2="70" y2="100" transform="matrix(0.22865084554909762,-0.10108803504709499,0.10108803504709499,0.22865084554909762,40.53433170983463,79.8488919508969)" stroke-linecap="round" stroke-width="4" stroke="#F1F5F9"></line><line x1="60" y1="100" x2="70" y2="110" transform="matrix(0.14603220760115376,-0.20291523930728694,0.20291523930728694,0.14603220760115376,34.201806378659874,102.8561087568525)" stroke-linecap="round" stroke-width="4" stroke="#F1F5F9"></line><line x1="60" y1="110" x2="70" y2="120" transform="matrix(-0.05256446617974528,-0.244411490923071,0.244411490923071,-0.05256446617974528,40.30936884553028,136.93166052067033)" stroke-linecap="round" stroke-width="4" stroke="#F1F5F9"></line><line x1="60" y1="120" x2="70" y2="130" transform="matrix(-0.2252555445083003,-0.10844325552227371,0.10844325552227371,-0.2252555445083003,66.0862034527553,160.20575467248534)" stroke-linecap="round" stroke-width="4" stroke="#F1F5F9"></line><line x1="60" y1="130" x2="70" y2="140" transform="matrix(-0.2389766636992573,0.07341766958418171,-0.07341766958418171,-0.2389766636992573,90.44486853431626,162.48970107642793)" stroke-linecap="round" stroke-width="4" stroke="#F1F5F9"></line><line x1="60" y1="140" x2="70" y2="150" transform="matrix(-0.19341569983679072,0.15839939096045944,-0.15839939096045944,-0.19341569983679072,100.539932178658,162.74931606390479)" stroke-linecap="round" stroke-width="4" stroke="#F1F5F9"></line><line x1="60" y1="150" x2="70" y2="160" transform="matrix(-0.20759191260702883,0.13930397632571623,-0.13930397632571623,-0.20759191260702883,100.08559064994289,178.12198799291792)" stroke-linecap="round" stroke-width="4" stroke="#F1F5F9"></line><line x1="60" y1="160" x2="70" y2="170" transform="matrix(-0.24962146876382793,0.013752175543864743,-0.013752175543864743,-0.24962146876382793,83.4945044343865,205.2936509356804)" stroke-linecap="round" stroke-width="4" stroke="#F1F5F9"></line><line x1="60" y1="170" x2="70" y2="180" transform="matrix(-0.19543044486649122,-0.1559068350627558,0.1559068350627558,-0.19543044486649122,50.419282780339664,219.33427213071508)" stroke-linecap="round" stroke-width="4" stroke="#F1F5F9"></line><line x1="60" y1="180" x2="70" y2="190" transform="matrix(-0.07606972259487287,-0.23814574802909896,0.23814574802909896,-0.07606972259487287,25.887568583283432,214.5523723019429)" stroke-linecap="round" stroke-width="4" stroke="#F1F5F9"></line><line x1="60" y1="190" x2="70" y2="200" transform="matrix(-0.02420253108807502,-0.24882571709718987,0.24882571709718987,-0.02420253108807502,18.05214968677285,215.89316517349198)" stroke-linecap="round" stroke-width="4" stroke="#F1F5F9"></line><line x1="70" y1="0" x2="80" y2="10" transform="matrix(-0.24621057023301124,-0.04336306153323857,0.04336306153323857,-0.24621057023301124,93.24897745980965,9.483282466157949)" stroke-linecap="round" stroke-width="4" stroke="#F1F5F9"></line><line x1="70" y1="10" x2="80" y2="20" transform="matrix(-0.168742264254433,0.18446150886915974,-0.18446150886915974,-0.168742264254433,90.42259245211987,3.696520798629516)" stroke-linecap="round" stroke-width="4" stroke="#F1F5F9"></line><line x1="70" y1="20" x2="80" y2="30" transform="matrix(0.011758648179794225,0.24972331527709588,-0.24972331527709588,0.011758648179794225,80.36118426844283,5.976785149722954)" stroke-linecap="round" stroke-width="4" stroke="#F1F5F9"></line><line x1="70" y1="30" x2="80" y2="40" transform="matrix(0.09526498054639222,0.23113758560973052,-0.23113758560973052,0.09526498054639222,75.94494195536114,14.33040676014648)" stroke-linecap="round" stroke-width="4" stroke="#F1F5F9"></line><line x1="70" y1="40" x2="80" y2="50" transform="matrix(0.021858062846721288,0.24904261701280925,-0.24904261701280925,0.021858062846721288,84.56756305207232,25.338190895936847)" stroke-linecap="round" stroke-width="4" stroke="#F1F5F9"></line><line x1="70" y1="50" x2="80" y2="60" transform="matrix(-0.189033618726972,0.16360406777029043,-0.16360406777029043,-0.189033618726972,98.17574513188887,53.12654394721168)" stroke-linecap="round" stroke-width="4" stroke="#F1F5F9"></line><line x1="70" y1="60" x2="80" y2="70" transform="matrix(-0.20757609916756392,-0.13932753875087894,0.13932753875087894,-0.20757609916756392,81.51191741876016,88.94201185220757)" stroke-linecap="round" stroke-width="4" stroke="#F1F5F9"></line><line x1="70" y1="70" x2="80" y2="80" transform="matrix(0.06183921111689036,-0.24223111271767023,0.24223111271767023,0.06183921111689036,52.19472571240796,88.52939262005849)" stroke-linecap="round" stroke-width="4" stroke="#F1F5F9"></line><line x1="70" y1="80" x2="80" y2="90" transform="matrix(0.21367171047279152,-0.12978597822427337,0.12978597822427337,0.21367171047279152,47.9428135654774,76.57185297663322)" stroke-linecap="round" stroke-width="4" stroke="#F1F5F9"></line><line x1="70" y1="90" x2="80" y2="100" transform="matrix(0.23282628076426612,-0.09105999662573637,0.09105999662573637,0.23282628076426612,48.88732926323509,79.71100307432495)" stroke-linecap="round" stroke-width="4" stroke="#F1F5F9"></line><line x1="70" y1="100" x2="80" y2="110" transform="matrix(0.19131264856166796,-0.1609331243104406,0.1609331243104406,0.19131264856166796,43.75357330527864,96.98215622430791)" stroke-linecap="round" stroke-width="4" stroke="#F1F5F9"></line><line x1="70" y1="110" x2="80" y2="120" transform="matrix(0.05315045159521246,-0.2442847303767163,0.2442847303767163,0.05315045159521246,42.92097213703669,127.20905284480429)" stroke-linecap="round" stroke-width="4" stroke="#F1F5F9"></line><line x1="70" y1="120" x2="80" y2="130" transform="matrix(-0.1374593762460962,-0.20881791082671564,0.20881791082671564,-0.1374593762460962,59.207214365117764,157.8437653427657)" stroke-linecap="round" stroke-width="4" stroke="#F1F5F9"></line><line x1="70" y1="130" x2="80" y2="140" transform="matrix(-0.2403925634080176,-0.06863975129705996,0.06863975129705996,-0.2403925634080176,83.76307583049822,172.60097740736188)" stroke-linecap="round" stroke-width="4" stroke="#F1F5F9"></line><line x1="70" y1="140" x2="80" y2="150" transform="matrix(-0.2475891390833554,0.034635505019602365,-0.034635505019602365,-0.2475891390833554,98.591333659094,178.30276229061636)" stroke-linecap="round" stroke-width="4" stroke="#F1F5F9"></line><line x1="70" y1="150" x2="80" y2="160" transform="matrix(-0.2476435079152632,0.034244605230940736,-0.034244605230940736,-0.2476435079152632,98.88117690444055,190.81639833454526)" stroke-linecap="round" stroke-width="4" stroke="#F1F5F9"></line><line x1="70" y1="160" x2="80" y2="170" transform="matrix(-0.24024348154894518,-0.06915973954000722,0.06915973954000722,-0.24024348154894518,81.6069040920697,209.8271549210765)" stroke-linecap="round" stroke-width="4" stroke="#F1F5F9"></line><line x1="70" y1="170" x2="80" y2="180" transform="matrix(-0.1482267287901289,-0.20131775101112562,0.20131775101112562,-0.1482267287901289,50.886398232312686,216.03850886410697)" stroke-linecap="round" stroke-width="4" stroke="#F1F5F9"></line><line x1="70" y1="180" x2="80" y2="190" transform="matrix(-0.005619225543008508,-0.24993684063038166,0.24993684063038166,-0.005619225543008508,29.183126399105028,204.7848197727352)" stroke-linecap="round" stroke-width="4" stroke="#F1F5F9"></line><line x1="70" y1="190" x2="80" y2="200" transform="matrix(0.0766924683679473,-0.23794592935293388,0.23794592935293388,0.0766924683679473,22.848608648581845,197.89091336972032)" stroke-linecap="round" stroke-width="4" stroke="#F1F5F9"></line><line x1="80" y1="0" x2="90" y2="10" transform="matrix(-0.2465706674562269,-0.04126628103174258,0.04126628103174258,-0.2465706674562269,105.75217532862058,9.740487224979255)" stroke-linecap="round" stroke-width="4" stroke="#F1F5F9"></line><line x1="80" y1="10" x2="90" y2="20" transform="matrix(-0.1761270980358086,0.17742391422095463,-0.17742391422095463,-0.1761270980358086,102.63216204635805,2.5608737617559854)" stroke-linecap="round" stroke-width="4" stroke="#F1F5F9"></line><line x1="80" y1="20" x2="90" y2="30" transform="matrix(-0.008424694848134235,0.249858008710379,-0.249858008710379,-0.008424694848134235,91.96254927985089,3.9726866308211406)" stroke-linecap="round" stroke-width="4" stroke="#F1F5F9"></line><line x1="80" y1="30" x2="90" y2="40" transform="matrix(0.08055343545134823,0.23666673622836285,-0.23666673622836285,0.08055343545134823,86.4362937546281,12.06395717979197)" stroke-linecap="round" stroke-width="4" stroke="#F1F5F9"></line><line x1="80" y1="40" x2="90" y2="50" transform="matrix(0.03960792383951885,0.24684248493548042,-0.24684248493548042,0.03960792383951885,92.74123829573752,22.23603220770582)" stroke-linecap="round" stroke-width="4" stroke="#F1F5F9"></line><line x1="80" y1="50" x2="90" y2="60" transform="matrix(-0.13762224844979506,0.20871060522077664,-0.20871060522077664,-0.13762224844979506,108.17697440537529,44.82882222097271)" stroke-linecap="round" stroke-width="4" stroke="#F1F5F9"></line><line x1="80" y1="60" x2="90" y2="70" transform="matrix(-0.24772560598625823,-0.03364556640541423,0.03364556640541423,-0.24772560598625823,103.86971469248002,83.962037533567)" stroke-linecap="round" stroke-width="4" stroke="#F1F5F9"></line><line x1="80" y1="70" x2="90" y2="80" transform="matrix(-0.07246343820791097,-0.23926773732178827,0.23926773732178827,-0.07246343820791097,73.21431194853831,100.77251553794532)" stroke-linecap="round" stroke-width="4" stroke="#F1F5F9"></line><line x1="80" y1="80" x2="90" y2="90" transform="matrix(0.12359579854565732,-0.21731101808666142,0.21731101808666142,0.12359579854565732,56.02292058625291,92.96579366098536)" stroke-linecap="round" stroke-width="4" stroke="#F1F5F9"></line><line x1="80" y1="90" x2="90" y2="100" transform="matrix(0.18530034182239435,-0.16782068799913738,0.16782068799913738,0.18530034182239435,53.30650558517843,91.66122600679921)" stroke-linecap="round" stroke-width="4" stroke="#F1F5F9"></line><line x1="80" y1="100" x2="90" y2="110" transform="matrix(0.16278755755017427,-0.18973721592468015,0.18973721592468015,0.16278755755017427,51.24064993614377,104.03496981082952)" stroke-linecap="round" stroke-width="4" stroke="#F1F5F9"></line><line x1="80" y1="110" x2="90" y2="120" transform="matrix(0.059333308966787526,-0.2428570741136682,0.2428570741136682,0.059333308966787526,52.02810521475122,128.81952076848123)" stroke-linecap="round" stroke-width="4" stroke="#F1F5F9"></line><line x1="80" y1="120" x2="90" y2="130" transform="matrix(-0.10618986695702012,-0.22632656087090258,0.22632656087090258,-0.10618986695702012,65.7353185824839,157.51149104365425)" stroke-linecap="round" stroke-width="4" stroke="#F1F5F9"></line><line x1="80" y1="130" x2="90" y2="140" transform="matrix(-0.22300309593216538,-0.11300273981045526,0.11300273981045526,-0.22300309593216538,88.69989327982259,174.71065083473104)" stroke-linecap="round" stroke-width="4" stroke="#F1F5F9"></line><line x1="80" y1="140" x2="90" y2="150" transform="matrix(-0.24955143505483396,-0.014969344076244357,0.014969344076244357,-0.24955143505483396,104.04131708860545,182.4573523294317)" stroke-linecap="round" stroke-width="4" stroke="#F1F5F9"></line><line x1="80" y1="150" x2="90" y2="160" transform="matrix(-0.24973965047416843,-0.011406444715167881,0.011406444715167881,-0.24973965047416843,104.4598713594533,194.67919362428538)" stroke-linecap="round" stroke-width="4" stroke="#F1F5F9"></line><line x1="80" y1="160" x2="90" y2="170" transform="matrix(-0.22716972036277774,-0.10437393424748038,0.10437393424748038,-0.22716972036277774,87.08772708000184,211.35478827089418)" stroke-linecap="round" stroke-width="4" stroke="#F1F5F9"></line><line x1="80" y1="170" x2="90" y2="180" transform="matrix(-0.11680667597344162,-0.2210343874785899,0.2210343874785899,-0.11680667597344162,56.247549648989306,214.22909123103244)" stroke-linecap="round" stroke-width="4" stroke="#F1F5F9"></line><line x1="80" y1="180" x2="90" y2="190" transform="matrix(0.0504585955671001,-0.24485491649831298,0.24485491649831298,0.0504585955671001,35.41285982460859,196.4778277224431)" stroke-linecap="round" stroke-width="4" stroke="#F1F5F9"></line><line x1="80" y1="190" x2="90" y2="200" transform="matrix(0.16099394950295215,-0.19126146559995008,0.19126146559995008,0.16099394950295215,34.0195285002588,179.8634044229201)" stroke-linecap="round" stroke-width="4" stroke="#F1F5F9"></line><line x1="90" y1="0" x2="100" y2="10" transform="matrix(-0.24738977639325702,-0.03603190997011253,0.03603190997011253,-0.24738977639325702,118.32186920750885,9.659980329126975)" stroke-linecap="round" stroke-width="4" stroke="#F1F5F9"></line><line x1="90" y1="10" x2="100" y2="20" transform="matrix(-0.19384636890314666,0.157872053458062,-0.157872053458062,-0.19384636890314666,115.78348584766987,2.909850455031311)" stroke-linecap="round" stroke-width="4" stroke="#F1F5F9"></line><line x1="90" y1="20" x2="100" y2="30" transform="matrix(-0.05537262920220769,0.24379063135246773,-0.24379063135246773,-0.05537262920220769,106.35516555802143,3.224205751570757)" stroke-linecap="round" stroke-width="4" stroke="#F1F5F9"></line><line x1="90" y1="30" x2="100" y2="40" transform="matrix(0.03552441294822709,0.24746316106581165,-0.24746316106581165,0.03552441294822709,100.28639140722183,10.247645245559944)" stroke-linecap="round" stroke-width="4" stroke="#F1F5F9"></line><line x1="90" y1="40" x2="100" y2="50" transform="matrix(0.028529525262085693,0.24836679767698422,-0.24836679767698422,0.028529525262085693,103.46620099556615,20.12132558389264)" stroke-linecap="round" stroke-width="4" stroke="#F1F5F9"></line><line x1="90" y1="50" x2="100" y2="60" transform="matrix(-0.09182039383515656,0.23252745058585395,-0.23252745058585395,-0.09182039383515656,116.51194719656183,37.96001385527749)" stroke-linecap="round" stroke-width="4" stroke="#F1F5F9"></line><line x1="90" y1="60" x2="100" y2="70" transform="matrix(-0.2358817269708159,0.08282397528050349,-0.08282397528050349,-0.2358817269708159,122.79232245546024,72.4640346014552)" stroke-linecap="round" stroke-width="4" stroke="#F1F5F9"></line><line x1="90" y1="70" x2="100" y2="80" transform="matrix(-0.20323089161293265,-0.14559259834968408,0.14559259834968408,-0.20323089161293265,103.3874898270023,104.07361371418995)" stroke-linecap="round" stroke-width="4" stroke="#F1F5F9"></line><line x1="90" y1="80" x2="100" y2="90" transform="matrix(-0.04429936284117285,-0.24604383034708696,0.24604383034708696,-0.04429936284117285,78.29471389040903,112.13960972447295)" stroke-linecap="round" stroke-width="4" stroke="#F1F5F9"></line><line x1="90" y1="90" x2="100" y2="100" transform="matrix(0.0602136742381977,-0.24264029639517054,0.24264029639517054,0.0602136742381977,66.22887278983002,112.33052910491242)" stroke-linecap="round" stroke-width="4" stroke="#F1F5F9"></line><line x1="90" y1="100" x2="100" y2="110" transform="matrix(0.07446490738342476,-0.23865241999271236,0.23865241999271236,0.07446490738342476,62.86732969933985,119.85316462404808)" stroke-linecap="round" stroke-width="4" stroke="#F1F5F9"></line><line x1="90" y1="110" x2="100" y2="120" transform="matrix(-0.000466774863155063,-0.24999956424207448,0.24999956424207448,-0.000466774863155063,66.29439372416117,138.8036377122599)" stroke-linecap="round" stroke-width="4" stroke="#F1F5F9"></line><line x1="90" y1="120" x2="100" y2="130" transform="matrix(-0.14090441103643656,-0.20650895125992708,0.20650895125992708,-0.14090441103643656,82.57230014097058,162.23140174924765)" stroke-linecap="round" stroke-width="4" stroke="#F1F5F9"></line><line x1="90" y1="130" x2="100" y2="140" transform="matrix(-0.23819596765136983,-0.07591232439220642,0.07591232439220642,-0.23819596765136983,107.38045313393226,174.36812645019455)" stroke-linecap="round" stroke-width="4" stroke="#F1F5F9"></line><line x1="90" y1="140" x2="100" y2="150" transform="matrix(-0.24769152638386677,0.033895541854796055,-0.033895541854796055,-0.24769152638386677,123.44554857541277,177.69519484945505)" stroke-linecap="round" stroke-width="4" stroke="#F1F5F9"></line><line x1="90" y1="150" x2="100" y2="160" transform="matrix(-0.24639702156689455,0.04229075268854051,-0.04229075268854051,-0.24639702156689455,124.96278371557877,189.1739168374573)" stroke-linecap="round" stroke-width="4" stroke="#F1F5F9"></line><line x1="90" y1="160" x2="100" y2="170" transform="matrix(-0.24389543213387893,-0.0549091812380084,0.0549091812380084,-0.24389543213387893,109.11005114844711,210.45911851970084)" stroke-linecap="round" stroke-width="4" stroke="#F1F5F9"></line><line x1="90" y1="170" x2="100" y2="180" transform="matrix(-0.15144862493936004,-0.19890528902967125,0.19890528902967125,-0.15144862493936004,74.57919378904674,220.39951182220676)" stroke-linecap="round" stroke-width="4" stroke="#F1F5F9"></line><line x1="90" y1="180" x2="100" y2="190" transform="matrix(0.037900432520963714,-0.24711041502681322,0.24711041502681322,0.037900432520963714,45.684032130548005,201.46390941116897)" stroke-linecap="round" stroke-width="4" stroke="#F1F5F9"></line><line x1="90" y1="190" x2="100" y2="200" transform="matrix(0.18503393367098392,-0.1681143759178314,0.1681143759178314,0.18503393367098392,44.639472997279405,174.88924864635212)" stroke-linecap="round" stroke-width="4" stroke="#F1F5F9"></line><line x1="100" y1="0" x2="110" y2="10" transform="matrix(-0.24722420540915804,-0.037150938881950604,0.037150938881950604,-0.24722420540915804,130.77278687355184,10.136969609650604)" stroke-linecap="round" stroke-width="4" stroke="#F1F5F9"></line><line x1="100" y1="10" x2="110" y2="20" transform="matrix(-0.2144432124865395,0.12850723177491946,-0.12850723177491946,-0.2144432124865395,129.44414578771045,4.723388850931549)" stroke-linecap="round" stroke-width="4" stroke="#F1F5F9"></line><line x1="100" y1="20" x2="110" y2="30" transform="matrix(-0.10607142187513295,0.22638209615909904,-0.22638209615909904,-0.10607142187513295,121.79705170086643,3.881665450172921)" stroke-linecap="round" stroke-width="4" stroke="#F1F5F9"></line><line x1="100" y1="30" x2="110" y2="40" transform="matrix(-0.013580253125393554,0.2496308809523578,-0.2496308809523578,-0.013580253125393554,115.16300741149885,9.264066359391204)" stroke-linecap="round" stroke-width="4" stroke="#F1F5F9"></line><line x1="100" y1="40" x2="110" y2="50" transform="matrix(0.00724141704515469,0.24989510175107102,-0.24989510175107102,0.00724141704515469,115.48493078905696,18.435150549105582)" stroke-linecap="round" stroke-width="4" stroke="#F1F5F9"></line><line x1="100" y1="50" x2="110" y2="60" transform="matrix(-0.05981158930135763,0.24273972436592597,-0.24273972436592597,-0.05981158930135763,124.63090171676848,32.801966353152444)" stroke-linecap="round" stroke-width="4" stroke="#F1F5F9"></line><line x1="100" y1="60" x2="110" y2="70" transform="matrix(-0.18581229923437215,0.16725366798141122,-0.16725366798141122,-0.18581229923437215,135.3817798384008,59.516164312186014)" stroke-linecap="round" stroke-width="4" stroke="#F1F5F9"></line><line x1="100" y1="70" x2="110" y2="80" transform="matrix(-0.24991525223321337,-0.0065089708256634805,0.0065089708256634805,-0.24991525223321337,130.75292867256263,94.42708585418566)" stroke-linecap="round" stroke-width="4" stroke="#F1F5F9"></line><line x1="100" y1="80" x2="110" y2="90" transform="matrix(-0.185798198486956,-0.1672693320337046,0.1672693320337046,-0.185798198486956,110.2909176182655,118.35612673493024)" stroke-linecap="round" stroke-width="4" stroke="#F1F5F9"></line><line x1="100" y1="90" x2="110" y2="100" transform="matrix(-0.08138507976358288,-0.236382039909709,0.236382039909709,-0.08138507976358288,91.08913958375385,127.55169676805983)" stroke-linecap="round" stroke-width="4" stroke="#F1F5F9"></line><line x1="100" y1="100" x2="110" y2="110" transform="matrix(-0.028099357401036324,-0.2484158330574942,0.2484158330574942,-0.028099357401036324,81.86677005607191,134.0340949981457)" stroke-linecap="round" stroke-width="4" stroke="#F1F5F9"></line><line x1="100" y1="110" x2="110" y2="120" transform="matrix(-0.0718305950114536,-0.23945848412679083,0.23945848412679083,-0.0718305950114536,85.00448680162168,148.40365925963022)" stroke-linecap="round" stroke-width="4" stroke="#F1F5F9"></line><line x1="100" y1="120" x2="110" y2="130" transform="matrix(-0.18934877170012443,-0.16323921911003544,0.16323921911003544,-0.18934877170012443,104.47671863975864,165.8087144690693)" stroke-linecap="round" stroke-width="4" stroke="#F1F5F9"></line><line x1="100" y1="130" x2="110" y2="140" transform="matrix(-0.24993860537718335,0.005540175277787896,-0.005540175277787896,-0.24993860537718335,131.99147722710563,168.159993321752)" stroke-linecap="round" stroke-width="4" stroke="#F1F5F9"></line><line x1="100" y1="140" x2="110" y2="150" transform="matrix(-0.20801827531174394,0.13866649608440929,-0.13866649608440929,-0.20801827531174394,146.94856083997246,160.6026678313399)" stroke-linecap="round" stroke-width="4" stroke="#F1F5F9"></line><line x1="100" y1="150" x2="110" y2="160" transform="matrix(-0.18738264120238474,0.16549243419570075,-0.16549243419570075,-0.18738264120238474,150.326504626584,166.66760379582107)" stroke-linecap="round" stroke-width="4" stroke="#F1F5F9"></line><line x1="100" y1="160" x2="110" y2="170" transform="matrix(-0.2332026015138875,0.09009187891899577,-0.09009187891899577,-0.2332026015138875,144.3514331805925,194.01878196329687)" stroke-linecap="round" stroke-width="4" stroke="#F1F5F9"></line><line x1="100" y1="170" x2="110" y2="180" transform="matrix(-0.23405334341486847,-0.08785802431378505,0.08785802431378505,-0.23405334341486847,114.2004468036488,225.18442765054942)" stroke-linecap="round" stroke-width="4" stroke="#F1F5F9"></line><line x1="100" y1="180" x2="110" y2="190" transform="matrix(-0.0742900415076316,-0.23870691178261758,0.23870691178261758,-0.0742900415076316,68.63967567851707,223.8078834160867)" stroke-linecap="round" stroke-width="4" stroke="#F1F5F9"></line><line x1="100" y1="190" x2="110" y2="200" transform="matrix(0.1313851131220678,-0.21269215324007948,0.21269215324007948,0.1313851131220678,49.729593240367386,191.7125790314051)" stroke-linecap="round" stroke-width="4" stroke="#F1F5F9"></line><line x1="110" y1="0" x2="120" y2="10" transform="matrix(-0.24310981141107998,-0.05828910357578961,0.05828910357578961,-0.24310981141107998,142.66618279439524,12.918795968271205)" stroke-linecap="round" stroke-width="4" stroke="#F1F5F9"></line><line x1="110" y1="10" x2="120" y2="20" transform="matrix(-0.23239693358623814,0.09215023201117627,-0.09215023201117627,-0.23239693358623814,143.10790084258502,7.888677322508301)" stroke-linecap="round" stroke-width="4" stroke="#F1F5F9"></line><line x1="110" y1="20" x2="120" y2="30" transform="matrix(-0.14430189025070062,0.20414936803741213,-0.20414936803741213,-0.14430189025070062,136.69845157976587,5.13036993196512)" stroke-linecap="round" stroke-width="4" stroke="#F1F5F9"></line><line x1="110" y1="30" x2="120" y2="40" transform="matrix(-0.04510105865166726,0.24589813848115824,-0.24589813848115824,-0.04510105865166726,128.79305659178226,8.300251127475157)" stroke-linecap="round" stroke-width="4" stroke="#F1F5F9"></line><line x1="110" y1="40" x2="120" y2="50" transform="matrix(-0.00039467232952416045,0.24999968846731052,-0.24999968846731052,-0.00039467232952416045,126.29537329892425,16.267796081087877)" stroke-linecap="round" stroke-width="4" stroke="#F1F5F9"></line><line x1="110" y1="50" x2="120" y2="60" transform="matrix(-0.03287835012016362,0.24782859821533096,-0.24782859821533096,-0.03287835012016362,132.41158316566202,28.30802046184594)" stroke-linecap="round" stroke-width="4" stroke="#F1F5F9"></line><line x1="110" y1="60" x2="120" y2="70" transform="matrix(-0.13176406041516137,0.2124576013770976,-0.2124576013770976,-0.13176406041516137,143.9626110372549,49.132039768619265)" stroke-linecap="round" stroke-width="4" stroke="#F1F5F9"></line><line x1="110" y1="70" x2="120" y2="80" transform="matrix(-0.23116567630569873,0.09519679667997716,-0.09519679667997716,-0.23116567630569873,148.72381252615364,81.38979410473003)" stroke-linecap="round" stroke-width="4" stroke="#F1F5F9"></line><line x1="110" y1="80" x2="120" y2="90" transform="matrix(-0.23938046604868435,-0.07209016905455752,0.07209016905455752,-0.23938046604868435,136.4010892259613,113.63770905541229)" stroke-linecap="round" stroke-width="4" stroke="#F1F5F9"></line><line x1="110" y1="90" x2="120" y2="100" transform="matrix(-0.1569057307070077,-0.19462937001208214,0.19462937001208214,-0.1569057307070077,114.55436888015808,132.28842196855518)" stroke-linecap="round" stroke-width="4" stroke="#F1F5F9"></line><line x1="110" y1="100" x2="120" y2="110" transform="matrix(-0.08008589499784463,-0.23682535637552454,0.23682535637552454,-0.08008589499784463,99.34321550532205,140.643934957959)" stroke-linecap="round" stroke-width="4" stroke="#F1F5F9"></line><line x1="110" y1="110" x2="120" y2="120" transform="matrix(-0.10140102645919817,-0.22851221375020853,0.22851221375020853,-0.10140102645919817,100.38221346153381,152.94002262408176)" stroke-linecap="round" stroke-width="4" stroke="#F1F5F9"></line><line x1="110" y1="120" x2="120" y2="130" transform="matrix(-0.21063565791831548,-0.13465741573830378,0.13465741573830378,-0.21063565791831548,122.39092369331831,166.81506004969435)" stroke-linecap="round" stroke-width="4" stroke="#F1F5F9"></line><line x1="110" y1="130" x2="120" y2="140" transform="matrix(-0.23915625012050853,0.07283054323768817,-0.07283054323768817,-0.23915625012050853,152.33509210094638,158.9105812939345)" stroke-linecap="round" stroke-width="4" stroke="#F1F5F9"></line><line x1="110" y1="140" x2="120" y2="150" transform="matrix(-0.12069885286920926,0.2189332933019941,-0.2189332933019941,-0.12069885286920926,160.6256956087482,137.324004936306)" stroke-linecap="round" stroke-width="4" stroke="#F1F5F9"></line><line x1="110" y1="150" x2="120" y2="160" transform="matrix(-0.040367534454073956,0.24671939964684406,-0.24671939964684406,-0.040367534454073956,157.88377340747934,132.8842368809944)" stroke-linecap="round" stroke-width="4" stroke="#F1F5F9"></line><line x1="110" y1="160" x2="120" y2="170" transform="matrix(-0.0931411120360779,0.23200158027195156,-0.23200158027195156,-0.0931411120360779,163.99148862902098,153.68810175467843)" stroke-linecap="round" stroke-width="4" stroke="#F1F5F9"></line><line x1="110" y1="170" x2="120" y2="180" transform="matrix(-0.21840737779893754,0.12164792362795249,-0.12164792362795249,-0.21840737779893754,161.4052350817695,199.23177989759955)" stroke-linecap="round" stroke-width="4" stroke="#F1F5F9"></line><line x1="110" y1="180" x2="120" y2="190" transform="matrix(-0.22600777330303998,-0.10686667584706512,0.10686667584706512,-0.22600777330303998,121.22055889814254,239.10110578347488)" stroke-linecap="round" stroke-width="4" stroke="#F1F5F9"></line><line x1="110" y1="190" x2="120" y2="200" transform="matrix(-0.03773523902880082,-0.24713569498443413,0.24713569498443413,-0.03773523902880082,71.14809196634744,230.7789765338261)" stroke-linecap="round" stroke-width="4" stroke="#F1F5F9"></line><line x1="120" y1="0" x2="130" y2="10" transform="matrix(-0.23354752250458524,-0.08919391645157335,0.08919391645157335,-0.23354752250458524,153.74747073081528,17.316977168969593)" stroke-linecap="round" stroke-width="4" stroke="#F1F5F9"></line><line x1="120" y1="10" x2="130" y2="20" transform="matrix(-0.24250560083477984,0.060753876944294,-0.060753876944294,-0.24250560083477984,156.2245082585119,11.043349394484949)" stroke-linecap="round" stroke-width="4" stroke="#F1F5F9"></line><line x1="120" y1="20" x2="130" y2="30" transform="matrix(-0.16362130554001397,0.18901869847552488,-0.18901869847552488,-0.16362130554001397,150.17813065438986,5.46319532905974)" stroke-linecap="round" stroke-width="4" stroke="#F1F5F9"></line><line x1="120" y1="30" x2="130" y2="40" transform="matrix(-0.051735360870334056,0.24458833258276305,-0.24458833258276305,-0.051735360870334056,140.02751174918848,6.237196057616309)" stroke-linecap="round" stroke-width="4" stroke="#F1F5F9"></line><line x1="120" y1="40" x2="130" y2="50" transform="matrix(0.016806755884735326,0.24943442616573783,-0.24943442616573783,0.016806755884735326,134.1237046918663,13.064392714469683)" stroke-linecap="round" stroke-width="4" stroke="#F1F5F9"></line><line x1="120" y1="50" x2="130" y2="60" transform="matrix(0.007093152369542237,0.2498993541197385,-0.2498993541197385,0.007093152369542237,137.85782043039285,23.372457354707866)" stroke-linecap="round" stroke-width="4" stroke="#F1F5F9"></line><line x1="120" y1="60" x2="130" y2="70" transform="matrix(-0.08201878489435856,0.2361629075965422,-0.2361629075965422,-0.08201878489435856,150.60293710557005,40.81085756856553)" stroke-linecap="round" stroke-width="4" stroke="#F1F5F9"></line><line x1="120" y1="70" x2="130" y2="80" transform="matrix(-0.20297676840577497,0.1459466734377608,-0.1459466734377608,-0.20297676840577497,161.31809655855392,71.97992345071302)" stroke-linecap="round" stroke-width="4" stroke="#F1F5F9"></line><line x1="120" y1="80" x2="130" y2="90" transform="matrix(-0.24805336758314403,-0.03113722580227141,0.03113722580227141,-0.24805336758314403,153.36000675469992,109.97668946985117)" stroke-linecap="round" stroke-width="4" stroke="#F1F5F9"></line><line x1="120" y1="90" x2="130" y2="100" transform="matrix(-0.1663303768842627,-0.1866392395117895,0.1866392395117895,-0.1663303768842627,128.06056935691282,134.13129074297865)" stroke-linecap="round" stroke-width="4" stroke="#F1F5F9"></line><line x1="120" y1="100" x2="130" y2="110" transform="matrix(-0.06383102793620672,-0.24171388018193576,0.24171388018193576,-0.06383102793620672,107.5989210729226,141.91649295604367)" stroke-linecap="round" stroke-width="4" stroke="#F1F5F9"></line><line x1="120" y1="110" x2="130" y2="120" transform="matrix(-0.06996471156561695,-0.2400102896451317,0.2400102896451317,-0.06996471156561695,106.14440563651198,153.0472280356874)" stroke-linecap="round" stroke-width="4" stroke="#F1F5F9"></line><line x1="120" y1="120" x2="130" y2="130" transform="matrix(-0.19632253956979612,-0.154781977170683,0.154781977170683,-0.19632253956979612,130.19257029988913,168.88806459255989)" stroke-linecap="round" stroke-width="4" stroke="#F1F5F9"></line><line x1="120" y1="130" x2="130" y2="140" transform="matrix(-0.23460493068542498,0.08637433934964095,-0.08637433934964095,-0.23460493068542498,165.98615214787964,155.87487322382725)" stroke-linecap="round" stroke-width="4" stroke="#F1F5F9"></line><line x1="120" y1="140" x2="130" y2="150" transform="matrix(-0.04847240992014616,0.24525583678382318,-0.24525583678382318,-0.04847240992014616,166.62114757367263,121.3715198404433)" stroke-linecap="round" stroke-width="4" stroke="#F1F5F9"></line><line x1="120" y1="150" x2="130" y2="160" transform="matrix(0.10382310697860853,0.22742199202651536,-0.22742199202651536,0.10382310697860853,147.27252039178381,110.47966941500125)" stroke-linecap="round" stroke-width="4" stroke="#F1F5F9"></line><line x1="120" y1="160" x2="130" y2="170" transform="matrix(0.10663444370045001,0.22611743722388053,-0.22611743722388053,0.10663444370045001,148.98007167938403,119.14063713644069)" stroke-linecap="round" stroke-width="4" stroke="#F1F5F9"></line><line x1="120" y1="170" x2="130" y2="180" transform="matrix(-0.025789385479143122,0.2486662574548629,-0.2486662574548629,-0.025789385479143122,171.7402682394939,148.4298602769922)" stroke-linecap="round" stroke-width="4" stroke="#F1F5F9"></line><line x1="120" y1="180" x2="130" y2="190" transform="matrix(-0.21078703684797007,0.1344203299239089,-0.1344203299239089,-0.21078703684797007,176.2161406419194,207.19306057638585)" stroke-linecap="round" stroke-width="4" stroke="#F1F5F9"></line><line x1="120" y1="190" x2="130" y2="200" transform="matrix(-0.22508835642321232,-0.10878985156114944,0.10878985156114944,-0.22508835642321232,131.9220234984774,252.4909609476701)" stroke-linecap="round" stroke-width="4" stroke="#F1F5F9"></line><line x1="130" y1="0" x2="140" y2="10" transform="matrix(-0.22856163314095163,-0.10128958414339082,0.10128958414339082,-0.22856163314095163,165.34937255331153,19.816902025062518)" stroke-linecap="round" stroke-width="4" stroke="#F1F5F9"></line><line x1="130" y1="10" x2="140" y2="20" transform="matrix(-0.2433751874833501,0.057170955190937484,-0.057170955190937484,-0.2433751874833501,168.7132146381163,10.932548861473691)" stroke-linecap="round" stroke-width="4" stroke="#F1F5F9"></line><line x1="130" y1="20" x2="140" y2="30" transform="matrix(-0.15863168094408478,0.19322523075637427,-0.19322523075637427,-0.15863168094408478,161.2459076963608,2.880385871491594)" stroke-linecap="round" stroke-width="4" stroke="#F1F5F9"></line><line x1="130" y1="30" x2="140" y2="40" transform="matrix(-0.032214088422351045,0.24791581737984558,-0.24791581737984558,-0.032214088422351045,148.025955545312,2.658857748503138)" stroke-linecap="round" stroke-width="4" stroke="#F1F5F9"></line><line x1="130" y1="40" x2="140" y2="50" transform="matrix(0.052684191994816096,0.24438571135369874,-0.24438571135369874,0.052684191994816096,138.88499109161626,9.637140327483948)" stroke-linecap="round" stroke-width="4" stroke="#F1F5F9"></line><line x1="130" y1="50" x2="140" y2="60" transform="matrix(0.058085856716322916,0.24315845296746483,-0.24315845296746483,0.058085856716322916,140.53212425650696,18.978886729994485)" stroke-linecap="round" stroke-width="4" stroke="#F1F5F9"></line><line x1="130" y1="60" x2="140" y2="70" transform="matrix(-0.029490946039387345,0.24825447448475516,-0.24825447448475516,-0.029490946039387345,155.11781855682636,33.40255743711823)" stroke-linecap="round" stroke-width="4" stroke="#F1F5F9"></line><line x1="130" y1="70" x2="140" y2="80" transform="matrix(-0.1807063992423783,0.1727576258023193,-0.1727576258023193,-0.1807063992423783,172.35218583289503,65.23070045986528)" stroke-linecap="round" stroke-width="4" stroke="#F1F5F9"></line><line x1="130" y1="80" x2="140" y2="90" transform="matrix(-0.24818027513670354,-0.030108985918993286,0.030108985918993286,-0.24818027513670354,165.94507334034054,110.16003648568389)" stroke-linecap="round" stroke-width="4" stroke="#F1F5F9"></line><line x1="130" y1="90" x2="140" y2="100" transform="matrix(-0.14089168904647503,-0.20651763110599392,0.20651763110599392,-0.14089168904647503,134.40120306620472,136.2645906587243)" stroke-linecap="round" stroke-width="4" stroke="#F1F5F9"></line><line x1="130" y1="100" x2="140" y2="110" transform="matrix(-0.004884410360005596,-0.24995228051657195,0.24995228051657195,-0.004884410360005596,109.4144059443607,139.2564209575378)" stroke-linecap="round" stroke-width="4" stroke="#F1F5F9"></line><line x1="130" y1="110" x2="140" y2="120" transform="matrix(0.005585996633579124,-0.24993758549207767,0.24993758549207767,0.005585996633579124,105.50306812287789,148.0991844285689)" stroke-linecap="round" stroke-width="4" stroke="#F1F5F9"></line><line x1="130" y1="120" x2="140" y2="130" transform="matrix(-0.14346727066256182,-0.2047367633050675,0.2047367633050675,-0.14346727066256182,128.7759861263124,170.57287187900434)" stroke-linecap="round" stroke-width="4" stroke="#F1F5F9"></line><line x1="130" y1="130" x2="140" y2="140" transform="matrix(-0.24575985814710777,0.0458485782060193,-0.0458485782060193,-0.24575985814710777,174.36713890767214,161.98802279204693)" stroke-linecap="round" stroke-width="4" stroke="#F1F5F9"></line><line x1="130" y1="140" x2="140" y2="150" transform="matrix(-0.03435455472375252,0.24762827901863851,-0.24762827901863851,-0.03435455472375252,175.54396534540916,116.55159276742792)" stroke-linecap="round" stroke-width="4" stroke="#F1F5F9"></line><line x1="130" y1="150" x2="140" y2="160" transform="matrix(0.1730949822009912,0.18038327842912305,-0.18038327842912305,0.1730949822009912,139.59158555938026,103.81853517091476)" stroke-linecap="round" stroke-width="4" stroke="#F1F5F9"></line><line x1="130" y1="160" x2="140" y2="170" transform="matrix(0.2156571844536792,0.1264593958293008,-0.1264593958293008,0.2156571844536792,126.75208041058794,112.34454612818733)" stroke-linecap="round" stroke-width="4" stroke="#F1F5F9"></line><line x1="130" y1="170" x2="140" y2="180" transform="matrix(0.16002332620319665,0.19207429570576412,-0.19207429570576412,0.16002332620319665,147.00985271107717,121.06588799416244)" stroke-linecap="round" stroke-width="4" stroke="#F1F5F9"></line><line x1="130" y1="180" x2="140" y2="190" transform="matrix(-0.018644770816405334,0.24930377558553685,-0.24930377558553685,-0.018644770816405334,183.63824254353904,154.7932728969875)" stroke-linecap="round" stroke-width="4" stroke="#F1F5F9"></line><line x1="130" y1="190" x2="140" y2="200" transform="matrix(-0.2159091733968917,0.12602868262054856,-0.12602868262054856,-0.2159091733968917,188.72333151958736,220.08841665861982)" stroke-linecap="round" stroke-width="4" stroke="#F1F5F9"></line><line x1="140" y1="0" x2="150" y2="10" transform="matrix(-0.241426488712981,-0.0649095566748137,0.0649095566748137,-0.241426488712981,179.68229308000818,15.619018161412892)" stroke-linecap="round" stroke-width="4" stroke="#F1F5F9"></line><line x1="140" y1="10" x2="150" y2="20" transform="matrix(-0.22925725233383681,0.09970512650982132,-0.09970512650982132,-0.22925725233383681,179.73787848605366,3.981615441083461)" stroke-linecap="round" stroke-width="4" stroke="#F1F5F9"></line><line x1="140" y1="20" x2="150" y2="30" transform="matrix(-0.1224136999801927,0.2179790954590815,-0.2179790954590815,-0.1224136999801927,168.19946388360498,-3.5466263420620017)" stroke-linecap="round" stroke-width="4" stroke="#F1F5F9"></line><line x1="140" y1="30" x2="150" y2="40" transform="matrix(0.009095600012864804,0.24983448533060038,-0.24983448533060038,0.009095600012864804,152.42534498470562,-1.5443463733873202)" stroke-linecap="round" stroke-width="4" stroke="#F1F5F9"></line><line x1="140" y1="40" x2="150" y2="50" transform="matrix(0.09208801888400311,0.23242159275338314,-0.23242159275338314,0.09208801888400311,142.10620893572178,7.1549082009793)" stroke-linecap="round" stroke-width="4" stroke="#F1F5F9"></line><line x1="140" y1="50" x2="150" y2="60" transform="matrix(0.09868531069787644,0.2296980832581404,-0.2296980832581404,0.09868531069787644,143.32402452800565,16.266085839186438)" stroke-linecap="round" stroke-width="4" stroke="#F1F5F9"></line><line x1="140" y1="60" x2="150" y2="70" transform="matrix(0.009419685443961708,0.24982247602274862,-0.24982247602274862,0.009419685443961708,159.8726065521042,28.163461422843937)" stroke-linecap="round" stroke-width="4" stroke="#F1F5F9"></line><line x1="140" y1="70" x2="150" y2="80" transform="matrix(-0.16537334111314878,0.18748775439765164,-0.18748775439765164,-0.16537334111314878,183.04071604123044,60.21727619582667)" stroke-linecap="round" stroke-width="4" stroke="#F1F5F9"></line><line x1="140" y1="80" x2="150" y2="90" transform="matrix(-0.2477563653461704,-0.03341830980847076,0.03341830980847076,-0.2477563653461704,178.08411664147468,110.90494597665274)" stroke-linecap="round" stroke-width="4" stroke="#F1F5F9"></line><line x1="140" y1="90" x2="150" y2="100" transform="matrix(-0.11765775214742819,-0.22058253185511847,0.22058253185511847,-0.11765775214742819,141.10503353514082,138.16195357299785)" stroke-linecap="round" stroke-width="4" stroke="#F1F5F9"></line><line x1="140" y1="100" x2="150" y2="110" transform="matrix(0.042190329099111,-0.24641423686651853,0.24641423686651853,0.042190329099111,113.00890740964446,136.30007979023853)" stroke-linecap="round" stroke-width="4" stroke="#F1F5F9"></line><line x1="140" y1="110" x2="150" y2="120" transform="matrix(0.07081976223673339,-0.23975938204110503,0.23975938204110503,0.07081976223673339,107.15880554094659,141.62083773873587)" stroke-linecap="round" stroke-width="4" stroke="#F1F5F9"></line><line x1="140" y1="120" x2="150" y2="130" transform="matrix(-0.07396390217099863,-0.23880816815100556,0.23880816815100556,-0.07396390217099863,125.87374479591911,168.87267215327063)" stroke-linecap="round" stroke-width="4" stroke="#F1F5F9"></line><line x1="140" y1="130" x2="150" y2="140" transform="matrix(-0.24859553367597736,-0.026462438216385095,0.026462438216385095,-0.24859553367597736,177.47392322380472,172.3974505876328)" stroke-linecap="round" stroke-width="4" stroke="#F1F5F9"></line><line x1="140" y1="140" x2="150" y2="150" transform="matrix(-0.07940507255918543,0.23705449679740415,-0.23705449679740415,-0.07940507255918543,190.8866375567055,122.14083348545829)" stroke-linecap="round" stroke-width="4" stroke="#F1F5F9"></line><line x1="140" y1="150" x2="150" y2="160" transform="matrix(0.1719836464626671,0.18144317388484016,-0.18144317388484016,0.1719836464626671,148.18606321506348,102.03327458498478)" stroke-linecap="round" stroke-width="4" stroke="#F1F5F9"></line><line x1="140" y1="160" x2="150" y2="170" transform="matrix(0.23738222828989014,0.07841988071992004,-0.07841988071992004,0.23738222828989014,123.51885721675274,114.46104962777972)" stroke-linecap="round" stroke-width="4" stroke="#F1F5F9"></line><line x1="140" y1="170" x2="150" y2="180" transform="matrix(0.22489511655782635,0.10918876566955824,-0.10918876566955824,0.22489511655782635,131.49824209128786,119.81098358029445)" stroke-linecap="round" stroke-width="4" stroke="#F1F5F9"></line><line x1="140" y1="180" x2="150" y2="190" transform="matrix(0.1271193575979058,0.21526882942938058,-0.21526882942938058,0.1271193575979058,166.39242659273907,130.26893857712724)" stroke-linecap="round" stroke-width="4" stroke="#F1F5F9"></line><line x1="140" y1="190" x2="150" y2="200" transform="matrix(-0.07515161236294313,0.23843706750262203,-0.23843706750262203,-0.07515161236294313,202.39221195563806,175.0811896228937)" stroke-linecap="round" stroke-width="4" stroke="#F1F5F9"></line><line x1="150" y1="0" x2="160" y2="10" transform="matrix(-0.24649398814845608,0.04172186245445905,-0.04172186245445905,-0.24649398814845608,193.41517747528297,-0.2344187396988726)" stroke-linecap="round" stroke-width="4" stroke="#F1F5F9"></line><line x1="150" y1="10" x2="160" y2="20" transform="matrix(-0.17407119331860257,0.17944141009431935,-0.17944141009431935,-0.17407119331860257,184.6726561157982,-10.202350664840463)" stroke-linecap="round" stroke-width="4" stroke="#F1F5F9"></line><line x1="150" y1="20" x2="160" y2="30" transform="matrix(-0.0531092251501984,0.2442936966111601,-0.2442936966111601,-0.0531092251501984,169.33927231355975,-11.53779234597485)" stroke-linecap="round" stroke-width="4" stroke="#F1F5F9"></line><line x1="150" y1="30" x2="160" y2="40" transform="matrix(0.05622079177837423,0.24359643382408677,-0.24359643382408677,0.05622079177837423,154.81165245819503,-4.725174954976545)" stroke-linecap="round" stroke-width="4" stroke="#F1F5F9"></line><line x1="150" y1="40" x2="160" y2="50" transform="matrix(0.1150889940561012,0.2219336014378055,-0.2219336014378055,0.1150889940561012,147.14821798600556,5.421287044615596)" stroke-linecap="round" stroke-width="4" stroke="#F1F5F9"></line><line x1="150" y1="50" x2="160" y2="60" transform="matrix(0.10908045543332232,0.22494767000895782,-0.22494767000895782,0.10908045543332232,150.46465125832773,14.133686099778814)" stroke-linecap="round" stroke-width="4" stroke="#F1F5F9"></line><line x1="150" y1="60" x2="160" y2="70" transform="matrix(0.015041069577001647,0.24954712225545658,-0.24954712225545658,0.015041069577001647,168.8891971621694,25.342526527899118)" stroke-linecap="round" stroke-width="4" stroke="#F1F5F9"></line><line x1="150" y1="70" x2="160" y2="80" transform="matrix(-0.16324111581064168,0.1893471365215135,-0.1893471365215135,-0.16324111581064168,194.50340818976298,57.894277524963535)" stroke-linecap="round" stroke-width="4" stroke="#F1F5F9"></line><line x1="150" y1="80" x2="160" y2="90" transform="matrix(-0.24769668175481493,-0.03385784765241186,0.03385784765241186,-0.24769668175481493,190.5150686215413,111.3021843352831)" stroke-linecap="round" stroke-width="4" stroke="#F1F5F9"></line><line x1="150" y1="90" x2="160" y2="100" transform="matrix(-0.11444453227225333,-0.2222666170008109,0.2222666170008109,-0.11444453227225333,151.62357388712223,140.32355620098974)" stroke-linecap="round" stroke-width="4" stroke="#F1F5F9"></line><line x1="150" y1="100" x2="160" y2="110" transform="matrix(0.049531503985861126,-0.24504413911150502,0.24504413911150502,0.049531503985861126,121.5929822754835,137.78103364376787)" stroke-linecap="round" stroke-width="4" stroke="#F1F5F9"></line><line x1="150" y1="110" x2="160" y2="120" transform="matrix(0.09293356623906252,-0.2320847954220392,0.2320847954220392,0.09293356623906252,113.9055457594108,140.28578317292389)" stroke-linecap="round" stroke-width="4" stroke="#F1F5F9"></line><line x1="150" y1="120" x2="160" y2="130" transform="matrix(-0.02156469308930306,-0.2490681914897287,0.2490681914897287,-0.02156469308930306,127.2090034926259,166.30115631707082)" stroke-linecap="round" stroke-width="4" stroke="#F1F5F9"></line><line x1="150" y1="130" x2="160" y2="140" transform="matrix(-0.22601031258766954,-0.10686130545723227,0.10686130545723227,-0.22601031258766954,175.60532221436242,182.0748945452064)" stroke-linecap="round" stroke-width="4" stroke="#F1F5F9"></line><line x1="150" y1="140" x2="160" y2="150" transform="matrix(-0.16433539470864308,0.18839819013449804,-0.18839819013449804,-0.16433539470864308,207.7897237493419,139.62691276190606)" stroke-linecap="round" stroke-width="4" stroke="#F1F5F9"></line><line x1="150" y1="150" x2="160" y2="160" transform="matrix(0.09835031071808185,0.22984172028084188,-0.22984172028084188,0.09835031071808185,175.3811684822278,104.13023519516682)" stroke-linecap="round" stroke-width="4" stroke="#F1F5F9"></line><line x1="150" y1="160" x2="160" y2="170" transform="matrix(0.21439694212719165,0.1285844127665155,-0.1285844127665155,0.21439694212719165,142.98490207676036,109.69392057020347)" stroke-linecap="round" stroke-width="4" stroke="#F1F5F9"></line><line x1="150" y1="170" x2="160" y2="180" transform="matrix(0.2215472566288701,0.11583096770821513,-0.11583096770821513,0.2215472566288701,140.9305945714628,118.27543009517439)" stroke-linecap="round" stroke-width="4" stroke="#F1F5F9"></line><line x1="150" y1="180" x2="160" y2="190" transform="matrix(0.1624637675405473,0.19001453690844552,-0.19001453690844552,0.1624637675405473,164.9708053592776,125.4919497841897)" stroke-linecap="round" stroke-width="4" stroke="#F1F5F9"></line><line x1="150" y1="190" x2="160" y2="200" transform="matrix(0.008726910803927497,0.24984763562583556,-0.24984763562583556,0.008726910803927497,202.36761777242918,154.57186887122964)" stroke-linecap="round" stroke-width="4" stroke="#F1F5F9"></line><line x1="160" y1="0" x2="170" y2="10" transform="matrix(-0.16632067442216458,0.18664788576288865,-0.18664788576288865,-0.16632067442216458,193.37615070847158,-24.965297778765805)" stroke-linecap="round" stroke-width="4" stroke="#F1F5F9"></line><line x1="160" y1="10" x2="170" y2="20" transform="matrix(-0.058010615429098376,0.2431764143529081,-0.2431764143529081,-0.058010615429098376,178.21939776109485,-24.25394913679336)" stroke-linecap="round" stroke-width="4" stroke="#F1F5F9"></line><line x1="160" y1="20" x2="170" y2="30" transform="matrix(0.029780839137473293,0.24821986548273678,-0.24821986548273678,0.029780839137473293,166.29165817938534,-16.700798783088402)" stroke-linecap="round" stroke-width="4" stroke="#F1F5F9"></line><line x1="160" y1="30" x2="170" y2="40" transform="matrix(0.08570893470262031,0.2348488418369185,-0.2348488418369185,0.08570893470262031,159.0777352383598,-6.749871617683269)" stroke-linecap="round" stroke-width="4" stroke="#F1F5F9"></line><line x1="160" y1="40" x2="170" y2="50" transform="matrix(0.10540915333806182,0.22669122257501054,-0.22669122257501054,0.10540915333806182,157.80859471509527,2.8525363749104784)" stroke-linecap="round" stroke-width="4" stroke="#F1F5F9"></line><line x1="160" y1="50" x2="170" y2="60" transform="matrix(0.07930910002540756,0.23708662267863173,-0.23708662267863173,0.07930910002540756,164.9537627431325,11.518706756628347)" stroke-linecap="round" stroke-width="4" stroke="#F1F5F9"></line><line x1="160" y1="60" x2="170" y2="70" transform="matrix(-0.016142836450009718,0.2494782732651247,-0.2494782732651247,-0.016142836450009718,183.8796557764847,24.885369280505053)" stroke-linecap="round" stroke-width="4" stroke="#F1F5F9"></line><line x1="160" y1="70" x2="170" y2="80" transform="matrix(-0.17516274377796562,0.17837604433380277,-0.17837604433380277,-0.17516274377796562,207.28005604839953,58.705158468269964)" stroke-linecap="round" stroke-width="4" stroke="#F1F5F9"></line><line x1="160" y1="80" x2="170" y2="90" transform="matrix(-0.24802803595628267,-0.031338369129055625,0.031338369129055625,-0.24802803595628267,203.2608645568169,111.2532139625782)" stroke-linecap="round" stroke-width="4" stroke="#F1F5F9"></line><line x1="160" y1="90" x2="170" y2="100" transform="matrix(-0.1324781252672282,-0.21201308055325407,0.21201308055325407,-0.1324781252672282,166.71764801653353,142.56758019167358)" stroke-linecap="round" stroke-width="4" stroke="#F1F5F9"></line><line x1="160" y1="100" x2="170" y2="110" transform="matrix(0.017477324238047636,-0.24938833801418653,0.24938833801418653,0.017477324238047636,135.93046600923256,144.31395672734578)" stroke-linecap="round" stroke-width="4" stroke="#F1F5F9"></line><line x1="160" y1="110" x2="170" y2="120" transform="matrix(0.07379198158180167,-0.2388613477610621,0.2388613477610621,0.07379198158180167,125.35526804648057,145.92604449866806)" stroke-linecap="round" stroke-width="4" stroke="#F1F5F9"></line><line x1="160" y1="120" x2="170" y2="130" transform="matrix(0.0019733917289673354,-0.24999221132884128,0.24999221132884128,0.0019733917289673354,133.42536394861523,166.0020409031379)" stroke-linecap="round" stroke-width="4" stroke="#F1F5F9"></line><line x1="160" y1="130" x2="170" y2="140" transform="matrix(-0.17966140725426633,-0.1738441219697021,0.1738441219697021,-0.17966140725426633,171.17517573104416,187.9385701043268)" stroke-linecap="round" stroke-width="4" stroke="#F1F5F9"></line><line x1="160" y1="140" x2="170" y2="150" transform="matrix(-0.236378665279667,0.08139488067810627,-0.08139488067810627,-0.236378665279667,215.80473746947047,165.8447511536642)" stroke-linecap="round" stroke-width="4" stroke="#F1F5F9"></line><line x1="160" y1="150" x2="170" y2="160" transform="matrix(-0.050323759063979935,0.24488266429796637,-0.24488266429796637,-0.050323759063979935,211.26023321174148,122.39454304575244)" stroke-linecap="round" stroke-width="4" stroke="#F1F5F9"></line><line x1="160" y1="160" x2="170" y2="170" transform="matrix(0.11379348968319225,0.2226006327612777,-0.2226006327612777,0.11379348968319225,182.9531786078841,109.49496979666246)" stroke-linecap="round" stroke-width="4" stroke="#F1F5F9"></line><line x1="160" y1="170" x2="170" y2="180" transform="matrix(0.15903738112339166,0.19289144979861877,-0.19289144979861877,0.15903738112339166,172.51483582939866,115.34136908663436)" stroke-linecap="round" stroke-width="4" stroke="#F1F5F9"></line><line x1="160" y1="180" x2="170" y2="190" transform="matrix(0.1220327070512747,0.21819261767928302,-0.21819261767928302,0.1220327070512747,185.23023760720702,126.42216727843248)" stroke-linecap="round" stroke-width="4" stroke="#F1F5F9"></line><line x1="160" y1="190" x2="170" y2="200" transform="matrix(0.0015441979864570096,0.24999523085966785,-0.24999523085966785,0.0015441979864570096,213.49427734986983,153.44966830079568)" stroke-linecap="round" stroke-width="4" stroke="#F1F5F9"></line><line x1="170" y1="0" x2="180" y2="10" transform="matrix(0.015266510508526067,0.24953343194228117,-0.24953343194228117,0.015266510508526067,173.57602782071933,-38.744683142441836)" stroke-linecap="round" stroke-width="4" stroke="#F1F5F9"></line><line x1="170" y1="10" x2="180" y2="20" transform="matrix(0.07866605724374574,0.23730076156161767,-0.23730076156161767,0.07866605724374574,164.79295140576875,-27.707624131939284)" stroke-linecap="round" stroke-width="4" stroke="#F1F5F9"></line><line x1="170" y1="20" x2="180" y2="30" transform="matrix(0.09290644875187973,0.2320956522219112,-0.2320956522219112,0.09290644875187973,164.54376277396884,-17.939400357631456)" stroke-linecap="round" stroke-width="4" stroke="#F1F5F9"></line><line x1="170" y1="30" x2="180" y2="40" transform="matrix(0.08165045338693361,0.23629050649932634,-0.23629050649932634,0.08165045338693361,168.98133838476303,-9.20860450592479)" stroke-linecap="round" stroke-width="4" stroke="#F1F5F9"></line><line x1="170" y1="40" x2="180" y2="50" transform="matrix(0.05508632754576863,0.24385548285310357,-0.24385548285310357,0.05508632754576863,176.33338940788016,-0.15359423885271184)" stroke-linecap="round" stroke-width="4" stroke="#F1F5F9"></line><line x1="170" y1="50" x2="180" y2="60" transform="matrix(0.00884167656880469,0.249843600589354,-0.249843600589354,0.00884167656880469,187.19410463287366,10.791077685578792)" stroke-linecap="round" stroke-width="4" stroke="#F1F5F9"></line><line x1="170" y1="60" x2="180" y2="70" transform="matrix(-0.0758949989592166,0.23820148851965747,-0.23820148851965747,-0.0758949989592166,203.76472157164065,28.247914441409023)" stroke-linecap="round" stroke-width="4" stroke="#F1F5F9"></line><line x1="170" y1="70" x2="180" y2="80" transform="matrix(-0.1959204866101781,0.15529057578111757,-0.15529057578111757,-0.1959204866101781,220.932878340365,62.518185734067785)" stroke-linecap="round" stroke-width="4" stroke="#F1F5F9"></line><line x1="170" y1="80" x2="180" y2="90" transform="matrix(-0.24865056764924937,-0.025940223740478188,0.025940223740478188,-0.24865056764924937,216.308930320678,110.67483740476987)" stroke-linecap="round" stroke-width="4" stroke="#F1F5F9"></line><line x1="170" y1="90" x2="180" y2="100" transform="matrix(-0.16356678729382182,-0.18906587765743887,0.18906587765743887,-0.16356678729382182,185.66292939896212,143.62537338296488)" stroke-linecap="round" stroke-width="4" stroke="#F1F5F9"></line><line x1="170" y1="100" x2="180" y2="110" transform="matrix(-0.03610163410262802,-0.24737961115484025,0.24737961115484025,-0.03610163410262802,155.34292679670168,152.082103532873)" stroke-linecap="round" stroke-width="4" stroke="#F1F5F9"></line><line x1="170" y1="110" x2="180" y2="120" transform="matrix(0.030948059693293964,-0.24807703964942082,0.24807703964942082,0.030948059693293964,141.05522999399017,154.85445507391984)" stroke-linecap="round" stroke-width="4" stroke="#F1F5F9"></line><line x1="170" y1="120" x2="180" y2="130" transform="matrix(0.001977163490746706,-0.24999218152680466,0.24999218152680466,0.001977163490746706,143.40497369826875,168.50148633084748)" stroke-linecap="round" stroke-width="4" stroke="#F1F5F9"></line><line x1="170" y1="130" x2="180" y2="140" transform="matrix(-0.12706826936323098,-0.21529898959594163,0.21529898959594163,-0.12706826936323098,168.17158354311331,189.83153954332596)" stroke-linecap="round" stroke-width="4" stroke="#F1F5F9"></line><line x1="170" y1="140" x2="180" y2="150" transform="matrix(-0.24514036683540277,-0.049053038109827196,0.049053038109827196,-0.24514036683540277,210.78687367027055,189.12963486035318)" stroke-linecap="round" stroke-width="4" stroke="#F1F5F9"></line><line x1="170" y1="150" x2="180" y2="160" transform="matrix(-0.19425547811780858,0.15736838698169844,-0.15736838698169844,-0.19425547811780858,233.38680865277976,157.57013138646312)" stroke-linecap="round" stroke-width="4" stroke="#F1F5F9"></line><line x1="170" y1="160" x2="180" y2="170" transform="matrix(-0.054802706507196854,0.24391937881088097,-0.24391937881088097,-0.054802706507196854,224.8371711425548,131.3565552817833)" stroke-linecap="round" stroke-width="4" stroke="#F1F5F9"></line><line x1="170" y1="170" x2="180" y2="180" transform="matrix(0.03152298781746859,0.24800463955148042,-0.24800463955148042,0.03152298781746859,212.88428905345208,126.08266521043393)" stroke-linecap="round" stroke-width="4" stroke="#F1F5F9"></line><line x1="170" y1="180" x2="180" y2="190" transform="matrix(0.03302112221735265,0.24780961540567117,-0.24780961540567117,0.03302112221735265,215.06608246201245,135.5244096937973)" stroke-linecap="round" stroke-width="4" stroke="#F1F5F9"></line><line x1="170" y1="190" x2="180" y2="200" transform="matrix(-0.05154305852156726,0.24462892943853204,-0.24462892943853204,-0.05154305852156726,231.72267648178803,162.2408337599625)" stroke-linecap="round" stroke-width="4" stroke="#F1F5F9"></line><line x1="180" y1="0" x2="190" y2="10" transform="matrix(0.17325105618171152,0.18023338073709166,-0.18023338073709166,0.17325105618171152,153.84972151006883,-29.20943071727052)" stroke-linecap="round" stroke-width="4" stroke="#F1F5F9"></line><line x1="180" y1="10" x2="190" y2="20" transform="matrix(0.1674742945443334,0.18561347113525423,-0.18561347113525423,0.1674742945443334,156.80145757632712,-21.850606578187033)" stroke-linecap="round" stroke-width="4" stroke="#F1F5F9"></line><line x1="180" y1="20" x2="190" y2="30" transform="matrix(0.11082634981686865,0.2240926598223803,-0.2240926598223803,0.11082634981686865,170.0994417794388,-19.227800812562066)" stroke-linecap="round" stroke-width="4" stroke="#F1F5F9"></line><line x1="180" y1="30" x2="190" y2="40" transform="matrix(0.030686627742012935,0.24810951388010724,-0.24810951388010724,0.030686627742012935,188.00680685353137,-11.974292038790288)" stroke-linecap="round" stroke-width="4" stroke="#F1F5F9"></line><line x1="180" y1="40" x2="190" y2="50" transform="matrix(-0.03854095801269454,0.24701132475144477,-0.24701132475144477,-0.03854095801269454,203.24558684616352,1.0372480315539718)" stroke-linecap="round" stroke-width="4" stroke="#F1F5F9"></line><line x1="180" y1="50" x2="190" y2="60" transform="matrix(-0.08857854543286099,0.23378161024554214,-0.23378161024554214,-0.08857854543286099,214.2450194685841,16.622222103382057)" stroke-linecap="round" stroke-width="4" stroke="#F1F5F9"></line><line x1="180" y1="60" x2="190" y2="70" transform="matrix(-0.14212832744376355,0.20566851615655307,-0.20566851615655307,-0.14212832744376355,224.66219412727222,36.189665794882316)" stroke-linecap="round" stroke-width="4" stroke="#F1F5F9"></line><line x1="180" y1="70" x2="190" y2="80" transform="matrix(-0.2141073181802145,0.12906609276520453,-0.12906609276520453,-0.2141073181802145,234.28981082073003,67.18082170195325)" stroke-linecap="round" stroke-width="4" stroke="#F1F5F9"></line><line x1="180" y1="80" x2="190" y2="90" transform="matrix(-0.24970177584262615,-0.012207503472818558,0.012207503472818558,-0.24970177584262615,230.15719073569625,108.48303908909466)" stroke-linecap="round" stroke-width="4" stroke="#F1F5F9"></line><line x1="180" y1="90" x2="190" y2="100" transform="matrix(-0.19481931957256438,-0.15666982070993454,0.15666982070993454,-0.19481931957256438,206.15794115348064,142.49175219073152)" stroke-linecap="round" stroke-width="4" stroke="#F1F5F9"></line><line x1="180" y1="100" x2="190" y2="110" transform="matrix(-0.08681678465243943,-0.23444156180722725,0.23444156180722725,-0.08681678465243943,176.44474117094245,157.48745132284319)" stroke-linecap="round" stroke-width="4" stroke="#F1F5F9"></line><line x1="180" y1="110" x2="190" y2="120" transform="matrix(-0.00882169626640883,-0.24984430686926454,0.24984430686926454,-0.00882169626640883,157.8999185193202,162.23569184145094)" stroke-linecap="round" stroke-width="4" stroke="#F1F5F9"></line><line x1="180" y1="120" x2="190" y2="130" transform="matrix(-0.005022921946481469,-0.2499495354168908,0.2499495354168908,-0.005022921946481469,154.68554863298772,171.868529295435)" stroke-linecap="round" stroke-width="4" stroke="#F1F5F9"></line><line x1="180" y1="130" x2="190" y2="140" transform="matrix(-0.08366144690106471,-0.23558599767902236,0.23558599767902236,-0.08366144690106471,168.67325799002896,189.87770490226288)" stroke-linecap="round" stroke-width="4" stroke="#F1F5F9"></line><line x1="180" y1="140" x2="190" y2="150" transform="matrix(-0.2026849750276511,-0.1463516344221699,0.1463516344221699,-0.2026849750276511,201.27573338890082,201.46437374711084)" stroke-linecap="round" stroke-width="4" stroke="#F1F5F9"></line><line x1="180" y1="150" x2="190" y2="160" transform="matrix(-0.24881273564195214,0.024335623730819943,-0.024335623730819943,-0.24881273564195214,234.80237777203823,189.0638836343009)" stroke-linecap="round" stroke-width="4" stroke="#F1F5F9"></line><line x1="180" y1="160" x2="190" y2="170" transform="matrix(-0.1823130288137623,0.17106127418195,-0.17106127418195,-0.1823130288137623,246.9530205705678,163.43531403061002)" stroke-linecap="round" stroke-width="4" stroke="#F1F5F9"></line><line x1="180" y1="170" x2="190" y2="180" transform="matrix(-0.08646271988392497,0.2345723727770897,-0.2345723727770897,-0.08646271988392497,242.04576841451683,146.73508701592527)" stroke-linecap="round" stroke-width="4" stroke="#F1F5F9"></line><line x1="180" y1="180" x2="190" y2="190" transform="matrix(-0.046050859177633165,0.24572203476489812,-0.24572203476489812,-0.046050859177633165,238.9779853793683,148.060832516356)" stroke-linecap="round" stroke-width="4" stroke="#F1F5F9"></line><line x1="180" y1="190" x2="190" y2="200" transform="matrix(-0.09059084872208095,0.2330092232676918,-0.2330092232676918,-0.09059084872208095,247.19610555078486,169.5585091962828)" stroke-linecap="round" stroke-width="4" stroke="#F1F5F9"></line><line x1="190" y1="0" x2="200" y2="10" transform="matrix(0.22891775128457925,0.10048215337467405,-0.10048215337467405,0.22891775128457925,150.86344926638043,-15.738608664484335)" stroke-linecap="round" stroke-width="4" stroke="#F1F5F9"></line><line x1="190" y1="10" x2="200" y2="20" transform="matrix(0.18364124561812345,0.16963458641392695,-0.16963458641392695,0.18364124561812345,161.73447590067482,-20.833363034987613)" stroke-linecap="round" stroke-width="4" stroke="#F1F5F9"></line><line x1="190" y1="20" x2="200" y2="30" transform="matrix(0.060894460308441554,0.24247033778122973,-0.24247033778122973,0.060894460308441554,189.18733868438463,-23.804077375050838)" stroke-linecap="round" stroke-width="4" stroke="#F1F5F9"></line><line x1="190" y1="30" x2="200" y2="40" transform="matrix(-0.07592535081988241,0.23819181577644052,-0.23819181577644052,-0.07592535081988241,218.1421569620525,-8.790016797710017)" stroke-linecap="round" stroke-width="4" stroke="#F1F5F9"></line><line x1="190" y1="40" x2="200" y2="50" transform="matrix(-0.1534124112782809,0.19739461002211683,-0.19739461002211683,-0.1534124112782809,233.79817765026002,13.411609553209857)" stroke-linecap="round" stroke-width="4" stroke="#F1F5F9"></line><line x1="190" y1="50" x2="200" y2="60" transform="matrix(-0.17868416442971757,0.17484841830011977,-0.17484841830011977,-0.17868416442971757,239.4600750703015,30.73218747511111)" stroke-linecap="round" stroke-width="4" stroke="#F1F5F9"></line><line x1="190" y1="60" x2="200" y2="70" transform="matrix(-0.1908374732676674,0.16149631202232556,-0.16149631202232556,-0.1908374732676674,242.7105675686463,45.91265491804489)" stroke-linecap="round" stroke-width="4" stroke="#F1F5F9"></line><line x1="190" y1="70" x2="200" y2="80" transform="matrix(-0.22096880077896552,0.11693070205171027,-0.11693070205171027,-0.22096880077896552,246.85871880577656,68.77117315833891)" stroke-linecap="round" stroke-width="4" stroke="#F1F5F9"></line><line x1="190" y1="80" x2="200" y2="90" transform="matrix(-0.2491890081821824,0.020120591471928382,-0.020120591471928382,-0.2491890081821824,245.30210687063948,102.25755035845947)" stroke-linecap="round" stroke-width="4" stroke="#F1F5F9"></line><line x1="190" y1="90" x2="200" y2="100" transform="matrix(-0.22298372912377834,-0.11304095074818439,0.11304095074818439,-0.22298372912377834,227.74293685805927,138.2264396626549)" stroke-linecap="round" stroke-width="4" stroke="#F1F5F9"></line><line x1="190" y1="100" x2="200" y2="110" transform="matrix(-0.12612210576552577,-0.21585461412086965,0.21585461412086965,-0.12612210576552577,196.92907614158622,160.33447085894977)" stroke-linecap="round" stroke-width="4" stroke="#F1F5F9"></line><line x1="190" y1="110" x2="200" y2="120" transform="matrix(-0.028106704184261047,-0.24841500192198224,0.24841500192198224,-0.028106704184261047,171.91308209490296,166.67319635597656)" stroke-linecap="round" stroke-width="4" stroke="#F1F5F9"></line><line x1="190" y1="120" x2="200" y2="130" transform="matrix(0.0030634525074375646,-0.2499812298128295,0.2499812298128295,0.0030634525074375646,163.154973034446,173.36340825007204)" stroke-linecap="round" stroke-width="4" stroke="#F1F5F9"></line><line x1="190" y1="130" x2="200" y2="140" transform="matrix(-0.045210879977139205,-0.2458779704074619,0.2458779704074619,-0.045210879977139205,170.6225955905348,189.04967302636885)" stroke-linecap="round" stroke-width="4" stroke="#F1F5F9"></line><line x1="190" y1="140" x2="200" y2="150" transform="matrix(-0.1517466842905384,-0.19867799024257235,0.19867799024257235,-0.1517466842905384,195.782294851482,205.74547731942968)" stroke-linecap="round" stroke-width="4" stroke="#F1F5F9"></line><line x1="190" y1="150" x2="200" y2="160" transform="matrix(-0.24089820171482637,-0.06684352182944,0.06684352182944,-0.24089820171482637,231.61440345082792,205.3737080225389)" stroke-linecap="round" stroke-width="4" stroke="#F1F5F9"></line><line x1="190" y1="160" x2="200" y2="170" transform="matrix(-0.2282818117015731,0.10191866583824337,-0.10191866583824337,-0.2282818117015731,256.3315331451169,182.7923590923021)" stroke-linecap="round" stroke-width="4" stroke="#F1F5F9"></line><line x1="190" y1="170" x2="200" y2="180" transform="matrix(-0.13482619083952016,0.2105276662667054,-0.2105276662667054,-0.13482619083952016,258.1334488103799,157.54168847490848)" stroke-linecap="round" stroke-width="4" stroke="#F1F5F9"></line><line x1="190" y1="180" x2="200" y2="190" transform="matrix(-0.06535222825669558,0.24130703732358233,-0.24130703732358233,-0.06535222825669558,252.38548641491838,150.03528994939012)" stroke-linecap="round" stroke-width="4" stroke="#F1F5F9"></line><line x1="190" y1="190" x2="200" y2="200" transform="matrix(-0.07745886635742585,0.23769754736349813,-0.23769754736349813,-0.07745886635742585,256.4555006755802,163.7534572038159)" stroke-linecap="round" stroke-width="4" stroke="#F1F5F9"></line></svg>