<svg id="Capa_1" enable-background="new 0 0 512 512" height="512" viewBox="0 0 512 512" width="512" xmlns="http://www.w3.org/2000/svg"><g><circle cx="256" cy="256" fill="#ffc400" r="256"/><path d="m256 0c-5.19 0-10.339.173-15.453.478 134.188 7.991 240.548 119.327 240.548 255.522s-106.36 247.531-240.547 255.522c5.113.305 10.262.478 15.452.478 141.385 0 256-114.615 256-256s-114.615-256-256-256z" fill="#ffab00"/><path d="m256 481.095c-124.403 0-225.095-100.676-225.095-225.095 0-124.403 100.676-225.095 225.095-225.095 124.403 0 225.095 100.675 225.095 225.095 0 124.407-100.679 225.095-225.095 225.095z" fill="#ffd740"/><path d="m352.128 302.289c-7.698-3.689-16.926-.439-20.614 7.256-14.699 30.669-40.064 48.978-67.851 48.978s-53.152-18.31-67.855-48.984c-.966-2.013-1.875-4.065-2.726-6.151h70.302c8.534 0 15.453-6.919 15.453-15.453s-6.919-15.453-15.453-15.453h-78.318c-.688-5.424-1.048-10.933-1.048-16.483 0-5.549.359-11.059 1.048-16.483h78.318c8.534 0 15.453-6.919 15.453-15.453s-6.919-15.453-15.453-15.453h-70.302c.852-2.088 1.761-4.142 2.729-6.157 14.7-30.669 40.065-48.978 67.852-48.978s53.152 18.309 67.851 48.978c3.688 7.696 12.92 10.945 20.614 7.256 7.696-3.689 10.945-12.918 7.256-20.614-19.668-41.034-56.345-66.526-95.72-66.526-39.374 0-76.052 25.491-95.718 66.52-3 6.252-5.56 12.785-7.669 19.521h-30.815c-8.534 0-15.453 6.919-15.453 15.453s6.919 15.453 15.453 15.453h24.504c-.558 5.451-.851 10.954-.851 16.483s.294 11.032.851 16.483h-24.504c-8.534 0-15.453 6.918-15.453 15.453s6.919 15.453 15.453 15.453h30.814c2.109 6.735 4.668 13.265 7.667 19.515 19.668 41.035 56.347 66.526 95.721 66.526 39.375 0 76.053-25.491 95.72-66.526 3.689-7.696.44-16.925-7.256-20.614z" fill="#ff9800"/></g></svg>