<?xml version="1.0" standalone="no"?>
<!DOCTYPE svg PUBLIC "-//W3C//DTD SVG 20010904//EN"
 "http://www.w3.org/TR/2001/REC-SVG-20010904/DTD/svg10.dtd">
<svg version="1.0" xmlns="http://www.w3.org/2000/svg"
 width="580.000000pt" height="580.000000pt" viewBox="0 0 580.000000 580.000000"
 preserveAspectRatio="xMidYMid meet">
<metadata>
Created by potrace 1.14, written by Peter Selinger 2001-2017
</metadata>
<g transform="translate(0.000000,580.000000) scale(0.100000,-0.100000)"
fill="#000000" stroke="none">
<path d="M1660 5396 c-60 -13 -201 -84 -247 -124 -15 -13 -37 -32 -48 -41 -23
-19 -71 -87 -107 -151 -14 -25 -49 -85 -78 -135 -29 -49 -62 -108 -75 -131
-44 -79 -50 -89 -55 -94 -3 -3 -14 -21 -24 -40 -11 -19 -44 -78 -74 -130 -31
-52 -64 -111 -74 -130 -11 -19 -28 -48 -39 -65 -10 -16 -24 -41 -29 -55 -6
-13 -14 -27 -18 -30 -4 -3 -14 -19 -23 -35 -8 -17 -57 -102 -108 -190 -51 -88
-154 -266 -229 -395 -74 -129 -143 -248 -153 -265 -10 -16 -23 -39 -29 -50 -5
-11 -23 -42 -40 -70 -80 -132 -102 -203 -105 -340 -4 -155 18 -228 114 -385
15 -25 41 -70 58 -100 16 -30 63 -111 103 -180 40 -68 81 -138 90 -155 9 -16
52 -91 95 -165 72 -124 120 -207 165 -285 122 -213 403 -698 419 -725 11 -19
32 -55 46 -80 14 -25 33 -59 43 -75 9 -17 30 -53 46 -80 46 -79 131 -157 226
-208 154 -82 56 -77 1410 -74 1136 2 1207 3 1245 20 62 28 109 51 115 57 3 3
17 11 32 19 56 29 125 95 175 169 29 42 53 83 53 90 0 6 5 12 10 12 6 0 10 6
10 14 0 8 6 21 13 28 7 7 21 29 30 48 10 19 29 53 42 75 13 22 27 47 31 55 4
8 25 43 46 78 21 34 38 65 38 68 0 3 10 20 22 37 13 18 23 34 23 37 0 3 19 37
41 75 23 39 47 81 54 95 7 14 16 27 19 30 3 3 15 23 26 45 11 22 22 42 25 45
3 3 62 104 131 225 70 121 136 236 148 255 11 19 31 53 43 75 12 22 28 49 35
60 6 11 20 36 31 55 10 19 43 76 72 125 29 50 64 110 78 135 13 25 28 50 32
55 12 15 59 102 92 169 70 142 70 361 -1 497 -40 77 -63 118 -92 164 -13 22
-31 54 -39 70 -8 17 -19 37 -26 45 -6 8 -22 35 -35 60 -13 25 -26 47 -29 50
-3 3 -19 31 -35 62 -17 32 -33 58 -37 58 -5 0 -8 4 -8 9 0 5 -32 65 -71 133
-39 67 -83 143 -97 168 -14 25 -33 57 -43 72 -11 14 -19 29 -19 32 0 3 -20 40
-45 82 -25 41 -45 80 -45 85 0 5 -4 9 -9 9 -5 0 -13 9 -16 20 -4 11 -24 49
-46 85 -21 36 -39 66 -39 69 0 2 -31 57 -70 121 -38 65 -72 126 -75 136 -4 11
-11 19 -16 19 -5 0 -9 4 -9 9 0 8 -51 100 -126 226 -13 22 -39 67 -57 99 -75
138 -111 181 -202 245 -54 38 -171 97 -220 110 -60 16 -2390 13 -2465 -3z"/>
</g>
</svg>
